<?xml version="1.0" standalone="no"?>
<!DOCTYPE svg PUBLIC "-//W3C//DTD SVG 20010904//EN"
 "http://www.w3.org/TR/2001/REC-SVG-20010904/DTD/svg10.dtd">
<svg version="1.0" xmlns="http://www.w3.org/2000/svg"
 width="3766.000000pt" height="3766.000000pt" viewBox="0 0 3766.000000 3766.000000"
 preserveAspectRatio="xMidYMid meet">
<metadata>
Created by potrace 1.14, written by Peter Selinger 2001-2017
</metadata>
<g transform="translate(0.000000,3766.000000) scale(0.100000,-0.100000)"
fill="#000000" stroke="none">
<path d="M18850 35305 c102 -180 110 -201 95 -221 -13 -16 -14 -16 -9 -1 4 11
1 17 -7 17 -8 0 -181 -41 -386 -92 -313 -77 -372 -95 -377 -111 -2 -10 -9 -16
-15 -13 -15 9 -1078 -412 -1104 -438 -12 -12 -181 -135 -374 -275 -194 -139
-353 -257 -353 -263 0 -5 -4 -6 -10 -3 -5 3 -10 2 -10 -3 0 -11 -40 -37 -320
-209 -102 -63 -186 -119 -188 -124 -2 -5 -8 -9 -12 -9 -12 0 -251 -157 -1035
-680 l-650 -433 -415 -410 c-335 -330 -444 -432 -565 -524 -82 -63 -149 -122
-149 -129 1 -8 -347 -339 -773 -735 -640 -595 -777 -718 -789 -708 -8 6 -16
10 -18 8 -1 -2 -130 -247 -286 -544 -156 -297 -307 -585 -337 -639 l-53 -99 0
-321 c0 -211 4 -316 10 -306 5 8 10 10 10 4 0 -14 -244 -387 -256 -391 -5 -1
-22 16 -38 38 -15 22 -30 38 -32 36 -2 -2 44 -174 102 -383 l106 -379 13 -345
13 -345 -110 -111 -110 -111 142 -324 c78 -178 146 -327 152 -330 7 -5 -7 -82
-43 -233 l-54 -226 -27 0 c-16 0 -28 -3 -28 -7 0 -5 23 -222 50 -483 27 -261
50 -486 50 -500 0 -16 -19 -48 -50 -85 -27 -33 -50 -63 -50 -68 0 -15 81 -135
95 -141 8 -3 15 -13 15 -23 0 -15 -2 -16 -11 -3 -13 18 -19 73 86 -744 47
-362 82 -662 79 -667 -3 -5 -9 -7 -14 -4 -10 6 -14 -29 -45 -415 -13 -168 -27
-328 -30 -355 l-6 -50 70 -38 c39 -21 75 -36 79 -33 5 3 9 -7 10 -22 1 -15 12
-77 26 -138 l25 -110 -24 -160 c-14 -87 -27 -173 -30 -191 -5 -31 -3 -33 47
-56 29 -14 106 -44 171 -67 64 -24 117 -47 117 -52 0 -6 -24 -47 -53 -91 -59
-90 -70 -112 -72 -142 -1 -11 -5 -41 -9 -66 l-7 -45 99 -62 c137 -86 137 -87
123 -164 -7 -35 -14 -70 -17 -79 -3 -11 28 -41 103 -98 l108 -83 31 -139 c17
-77 33 -142 36 -145 3 -3 34 -8 69 -12 l64 -7 -4 -172 -3 -171 28 -4 c25 -3
42 -26 154 -213 l126 -209 75 -44 76 -45 -5 -87 -5 -88 51 -7 c51 -7 90 -34
77 -55 -3 -6 -1 -9 7 -8 7 2 12 -3 10 -10 -1 -8 2 -11 7 -8 5 3 21 -11 37 -32
15 -20 30 -39 33 -42 28 -25 70 -83 66 -90 -3 -5 0 -12 6 -16 8 -5 9 -3 4 7
-8 12 -6 12 9 0 9 -8 14 -21 11 -30 -3 -8 -3 -12 1 -8 10 10 87 -71 79 -83 -4
-6 -2 -9 3 -8 11 3 52 -40 52 -55 0 -5 -8 -3 -17 4 -16 13 -17 12 -5 -3 8 -9
19 -15 27 -12 15 6 47 -35 38 -49 -3 -6 -1 -7 4 -4 10 6 31 -12 47 -40 5 -9 2
-11 -8 -7 -8 3 -17 12 -20 20 -3 8 -12 14 -21 14 -8 0 -15 5 -15 10 0 6 -7 10
-15 10 -8 0 -19 9 -26 21 -7 14 -14 18 -20 12 -7 -7 5 -48 31 -114 23 -57 43
-105 45 -107 1 -2 24 2 49 9 26 6 49 9 51 7 4 -4 35 -215 35 -235 0 -2 11 -3
24 -3 65 0 79 -15 284 -288 109 -147 202 -272 206 -278 6 -13 35 -144 40 -185
2 -15 70 -112 160 -230 87 -112 161 -210 166 -218 5 -10 99 -26 346 -57 185
-24 339 -42 342 -40 2 2 -17 172 -43 378 l-47 373 -104 273 c-79 205 -103 279
-98 299 4 15 3 24 -3 20 -5 -3 -69 213 -148 500 -115 422 -146 523 -186 607
-27 56 -49 111 -49 124 0 12 -4 22 -8 22 -5 0 -9 6 -9 13 0 9 -283 591 -590
1212 -63 128 -79 156 -86 149 -3 -3 -106 90 -227 207 -122 118 -290 279 -372
357 -101 96 -189 193 -266 290 -118 151 -290 336 -352 378 -93 62 -75 27 -242
484 -17 47 -34 90 -38 95 -11 13 -66 275 -75 350 -4 33 -11 62 -15 65 -5 3
-14 138 -20 301 l-12 297 43 202 c28 130 46 195 50 183 5 -10 7 3 6 33 -1 47
5 60 85 190 139 224 208 347 201 357 -3 6 -1 7 5 3 6 -3 14 3 18 16 3 12 16
31 28 43 23 24 151 115 161 115 11 0 105 67 100 71 -2 3 104 33 236 68 l240
64 112 -7 c156 -10 205 -14 342 -27 70 -6 121 -7 123 -1 1 5 26 -3 55 -17 86
-43 229 -108 270 -122 20 -7 37 -16 37 -19 0 -3 8 -6 18 -7 9 -1 35 -10 57
-19 42 -18 48 -21 66 -23 5 0 7 -5 4 -11 -3 -5 0 -7 8 -5 15 6 86 -21 102 -39
5 -7 299 -80 651 -162 l641 -149 31 -55 c17 -30 65 -124 106 -207 41 -84 77
-153 80 -153 2 0 136 53 296 119 l292 118 107 195 107 194 -33 354 c-18 195
-33 364 -33 375 0 11 13 220 29 465 17 245 35 531 41 635 6 105 15 193 19 198
7 7 547 158 961 268 124 32 252 68 285 78 33 11 411 115 840 232 429 117 786
219 794 226 7 8 23 11 35 8 15 -5 17 -4 7 3 -11 8 -4 13 27 23 23 7 42 16 42
20 0 5 7 5 17 2 12 -5 14 -3 8 7 -5 9 -4 11 3 6 7 -4 102 22 212 58 110 37
206 66 213 65 6 0 -105 -40 -248 -89 -143 -49 -257 -89 -252 -89 4 -1 211 51
460 114 248 63 463 117 477 120 71 15 137 32 151 39 8 4 29 8 45 9 16 1 31 5
34 8 6 7 133 39 155 39 16 0 225 -135 237 -154 4 -6 4 -13 0 -16 -4 -3 -36
-84 -71 -180 -35 -96 -74 -200 -86 -232 l-23 -56 105 76 c58 43 110 76 115 74
5 -1 7 2 3 8 -3 5 -1 10 5 10 6 0 9 3 7 8 -3 4 5 16 16 27 11 11 17 14 13 7
-4 -7 -2 -19 4 -27 6 -8 9 -18 6 -24 -3 -5 -2 -11 4 -13 5 -1 11 -12 13 -23 2
-11 7 -27 10 -35 23 -57 46 -157 42 -174 -5 -15 -4 -17 3 -8 7 10 15 -6 28
-55 11 -37 18 -74 18 -80 -1 -7 2 -13 6 -13 4 0 10 -12 13 -27 3 -16 9 -37 13
-47 6 -15 4 -18 -7 -12 -8 4 -6 1 3 -6 9 -8 19 -25 21 -39 2 -13 10 -37 17
-54 7 -16 13 -44 14 -62 0 -17 4 -29 9 -26 4 2 8 -3 8 -11 2 -19 3 -25 12 -46
3 -8 22 -64 41 -125 l36 -110 -5 143 c-5 116 -3 142 7 136 10 -5 11 -4 1 7 -7
7 -13 21 -13 31 0 10 -6 17 -12 16 -7 -2 -12 3 -10 10 1 8 -2 11 -8 7 -5 -3
-10 1 -10 9 0 8 5 18 10 21 8 5 8 11 1 19 -6 7 -7 16 -3 21 4 4 0 5 -8 3 -8
-3 -14 -11 -12 -17 1 -7 -2 -10 -8 -6 -7 5 -8 11 -1 19 7 8 6 33 -3 76 -7 35
-11 72 -8 82 2 10 0 24 -5 31 -15 18 -8 182 10 252 24 94 30 154 17 170 -8 10
-8 15 3 22 11 6 -2 62 -70 293 l-84 285 -5 360 c-4 211 -10 361 -15 363 -6 3
-6 9 0 16 10 12 -67 197 -85 203 -5 1 -103 -33 -219 -76 -151 -57 -214 -76
-222 -69 -10 8 -13 6 -13 -5 0 -15 -43 -28 -93 -27 -16 0 -26 -3 -23 -8 5 -9
-1506 -443 -1559 -448 -17 -2 -413 -123 -880 -270 -468 -146 -859 -267 -870
-269 -11 -1 -162 -52 -335 -113 -173 -61 -380 -132 -460 -157 -80 -25 -165
-52 -189 -60 -31 -10 -40 -11 -33 -2 7 8 -17 168 -78 517 -49 278 -90 515 -92
527 -2 18 133 125 862 681 598 455 866 665 868 680 2 11 -125 375 -281 809
-157 433 -287 796 -289 805 -3 16 29 43 440 382 43 35 76 56 80 50 5 -7 51 5
127 33 66 24 130 44 143 45 12 0 22 3 22 7 0 4 8 7 18 7 17 1 1308 459 1373
488 47 21 1473 289 1529 288 25 -1 196 -11 380 -22 184 -11 428 -24 541 -30
l205 -10 360 -105 c197 -58 370 -109 384 -112 14 -3 28 -11 33 -17 5 -8 10 -7
16 3 6 10 95 -38 382 -210 206 -122 379 -222 384 -222 11 0 36 -23 35 -32 0
-3 0 -8 0 -11 0 -4 7 -1 16 6 9 8 14 9 12 2 -2 -6 146 -144 327 -308 182 -163
515 -475 741 -693 l410 -396 353 -230 c193 -126 355 -230 359 -230 7 0 17 56
116 640 31 182 59 341 62 355 l6 25 20 -25 c11 -14 18 -20 15 -15 -9 19 -509
1150 -521 1180 -21 48 -41 100 -41 105 0 3 -6 15 -13 28 -7 12 -11 22 -10 22
2 0 126 -27 277 -60 151 -33 278 -60 281 -60 4 0 7 7 7 15 0 8 -3 13 -5 10 -3
-2 -15 6 -26 18 -12 13 -30 26 -39 30 -11 4 -15 12 -11 18 4 7 3 9 -3 6 -5 -3
-34 18 -63 48 -42 43 -52 57 -42 67 15 15 15 28 0 28 -6 0 -8 -3 -5 -7 4 -3 2
-12 -4 -19 -8 -10 -15 -8 -35 8 -13 12 -24 26 -24 31 0 6 10 2 22 -9 13 -11
18 -13 12 -4 -5 8 -9 18 -10 23 -1 4 -2 10 -3 13 0 4 -8 1 -16 -6 -13 -11 -21
-8 -45 15 -22 21 -27 32 -19 41 7 8 6 14 -2 20 -7 4 -9 3 -5 -4 3 -6 1 -14 -5
-17 -6 -4 -45 27 -90 73 -44 45 -82 81 -85 81 -3 0 -42 35 -87 78 -46 43 -128
120 -185 172 -56 51 -99 98 -95 104 3 5 1 7 -4 4 -14 -9 -41 24 -38 46 2 9 -1
15 -6 11 -5 -3 -7 -10 -4 -15 18 -28 -18 -1 -73 56 -34 36 -66 65 -71 65 -4 0
-30 24 -58 53 -27 30 -59 60 -70 68 -11 8 -66 58 -123 111 -87 83 -101 100
-90 113 12 15 11 16 -12 19 -7 0 -14 7 -14 14 -3 23 -4 24 -19 12 -11 -9 -20
-8 -42 8 -48 35 -143 138 -135 147 4 5 1 5 -6 1 -18 -11 -62 31 -55 53 3 11 2
12 -4 3 -7 -9 -15 -6 -33 13 -12 13 -27 22 -32 19 -5 -3 -12 3 -14 13 -3 11
-31 35 -62 54 -31 18 -58 37 -60 41 -2 5 -8 8 -14 8 -6 0 -77 38 -158 85
l-147 85 -12 238 c-7 130 -13 249 -14 264 -1 15 -5 24 -10 21 -4 -2 -13 0 -20
5 -13 10 -476 148 -682 202 -66 18 -122 34 -125 37 -3 3 30 4 73 2 l77 -4 95
65 c52 36 91 66 86 68 -7 2 -114 -14 -561 -87 -30 -5 -56 -8 -57 -7 -4 4 17
337 21 345 2 3 -213 100 -479 214 l-484 208 -368 70 c-202 38 -388 75 -413 81
-52 13 -107 14 -760 10 -339 -2 -480 -6 -467 -13 9 -6 14 -15 11 -21 -4 -7 -2
-8 4 -4 6 4 18 -4 27 -18 50 -76 748 -814 853 -901 51 -42 92 -83 92 -90 0 -7
6 -15 14 -18 29 -11 946 -889 939 -900 -3 -6 -1 -7 5 -3 7 4 12 2 12 -3 0 -6
3 -10 8 -9 12 4 73 -32 68 -40 -2 -4 3 -8 12 -8 15 0 1863 -1092 1886 -1114
12 -12 -4 -11 -224 7 l-185 15 -602 326 c-330 180 -600 328 -599 330 2 1 101
-41 221 -93 120 -52 220 -93 222 -92 3 4 -966 476 -1093 533 -32 15 -67 34
-76 42 -21 17 -24 37 -5 26 8 -5 8 -2 -2 9 -15 18 -26 23 -16 7 3 -5 2 -10 -4
-10 -17 0 -170 137 -163 146 4 5 3 6 -2 2 -8 -7 -35 14 -166 128 -69 61 -207
180 -224 193 -16 14 -189 162 -270 231 -16 14 -41 37 -55 51 -15 15 -150 228
-301 475 -354 577 -328 532 -304 514 11 -8 7 -3 -10 13 -17 15 -34 27 -38 27
-20 0 -380 256 -432 307 -58 57 -58 58 -36 18z m5070 -2190 c35 -49 79 -111
97 -137 19 -27 32 -48 29 -48 -6 0 -206 278 -206 287 0 11 14 -6 80 -102z
m236 -144 c-6 -8 16 -33 25 -28 2 1 1 -2 -3 -8 -11 -12 -42 20 -34 34 4 6 9
11 12 11 3 0 3 -4 0 -9z m-65 -98 c13 -16 12 -17 -3 -4 -17 13 -22 21 -14 21
2 0 10 -8 17 -17z m-4551 -838 c0 -2 -18 -14 -40 -25 -22 -11 -40 -16 -40 -12
0 8 25 21 78 41 1 1 2 -1 2 -4z m677 -11 c-3 -3 -12 -4 -19 -1 -8 3 -5 6 6 6
11 1 17 -2 13 -5z m-767 -34 c0 -5 -5 -10 -11 -10 -5 0 -7 5 -4 10 3 6 8 10
11 10 2 0 4 -4 4 -10z m2150 -26 c0 -2 -9 0 -20 6 -11 6 -20 13 -20 16 0 2 9
0 20 -6 11 -6 20 -13 20 -16z m860 -148 c0 -2 -8 -10 -17 -17 -16 -13 -17 -12
-4 4 13 16 21 21 21 13z m2337 -738 c-3 -7 -5 -2 -5 12 0 14 2 19 5 13 2 -7 2
-19 0 -25z m-827 -433 c-43 -44 -50 -50 -50 -41 0 6 84 86 90 86 2 0 -16 -20
-40 -45z m767 -192 c-3 -10 -5 -4 -5 12 0 17 2 24 5 18 2 -7 2 -21 0 -30z
m-10 -100 c-3 -10 -5 -4 -5 12 0 17 2 24 5 18 2 -7 2 -21 0 -30z m-10 -105
c-3 -7 -5 -2 -5 12 0 14 2 19 5 13 2 -7 2 -19 0 -25z m-10 -100 c-3 -7 -5 -2
-5 12 0 14 2 19 5 13 2 -7 2 -19 0 -25z m-8237 -68 c0 -5 -5 -10 -11 -10 -5 0
-7 5 -4 10 3 6 8 10 11 10 2 0 4 -4 4 -10z m8227 -42 c-3 -7 -5 -2 -5 12 0 14
2 19 5 13 2 -7 2 -19 0 -25z m-8289 -103 c-28 -69 -52 -124 -55 -122 -4 4 69
192 88 229 25 47 13 7 -33 -107z m8279 3 c-3 -8 -6 -5 -6 6 -1 11 2 17 5 13 3
-3 4 -12 1 -19z m-8346 -165 c-12 -20 -14 -14 -5 12 4 9 9 14 11 11 3 -2 0
-13 -6 -23z m-20 -50 c-12 -20 -14 -14 -5 12 4 9 9 14 11 11 3 -2 0 -13 -6
-23z m-20 -50 c-12 -20 -14 -14 -5 12 4 9 9 14 11 11 3 -2 0 -13 -6 -23z m-20
-50 c-12 -20 -14 -14 -5 12 4 9 9 14 11 11 3 -2 0 -13 -6 -23z m4367 -2408
c-3 -3 -9 2 -12 12 -6 14 -5 15 5 6 7 -7 10 -15 7 -18z m-950 -230 c-8 -8
-181 -65 -185 -61 -2 2 35 18 84 34 88 30 111 36 101 27z m-6431 -2681 c-3 -3
-12 -4 -19 -1 -8 3 -5 6 6 6 11 1 17 -2 13 -5z m-40 -10 c-3 -3 -12 -4 -19 -1
-8 3 -5 6 6 6 11 1 17 -2 13 -5z m-40 -10 c-3 -3 -12 -4 -19 -1 -8 3 -5 6 6 6
11 1 17 -2 13 -5z m-40 -10 c-3 -3 -12 -4 -19 -1 -8 3 -5 6 6 6 11 1 17 -2 13
-5z"/>
<path d="M19390 34907 c0 -2 15 -16 33 -33 l32 -29 -29 33 c-28 30 -36 37 -36
29z"/>
<path d="M19450 34837 c0 -2 15 -16 33 -33 l32 -29 -29 33 c-28 30 -36 37 -36
29z"/>
<path d="M19530 34745 c13 -14 26 -25 28 -25 3 0 -5 11 -18 25 -13 14 -26 25
-28 25 -3 0 5 -11 18 -25z"/>
<path d="M19595 34670 c10 -11 20 -20 23 -20 3 0 -3 9 -13 20 -10 11 -20 20
-23 20 -3 0 3 -9 13 -20z"/>
<path d="M19655 34600 c10 -11 20 -20 23 -20 3 0 -3 9 -13 20 -10 11 -20 20
-23 20 -3 0 3 -9 13 -20z"/>
<path d="M19715 34530 c10 -11 20 -20 23 -20 3 0 -3 9 -13 20 -10 11 -20 20
-23 20 -3 0 3 -9 13 -20z"/>
<path d="M19760 34476 c0 -2 8 -10 18 -17 15 -13 16 -12 3 4 -13 16 -21 21
-21 13z"/>
<path d="M19950 34476 c0 -2 8 -10 18 -17 15 -13 16 -12 3 4 -13 16 -21 21
-21 13z"/>
<path d="M20015 34420 c10 -11 20 -20 23 -20 3 0 -3 9 -13 20 -10 11 -20 20
-23 20 -3 0 3 -9 13 -20z"/>
<path d="M20545 33570 c10 -11 20 -20 23 -20 3 0 -3 9 -13 20 -10 11 -20 20
-23 20 -3 0 3 -9 13 -20z"/>
<path d="M20605 33500 c10 -11 20 -20 23 -20 3 0 -3 9 -13 20 -10 11 -20 20
-23 20 -3 0 3 -9 13 -20z"/>
<path d="M20675 33420 c10 -11 20 -20 23 -20 3 0 -3 9 -13 20 -10 11 -20 20
-23 20 -3 0 3 -9 13 -20z"/>
<path d="M20735 33350 c10 -11 20 -20 23 -20 3 0 -3 9 -13 20 -10 11 -20 20
-23 20 -3 0 3 -9 13 -20z"/>
<path d="M20790 33286 c0 -2 8 -10 18 -17 15 -13 16 -12 3 4 -13 16 -21 21
-21 13z"/>
<path d="M23950 33176 c0 -2 7 -7 16 -10 8 -3 12 -2 9 4 -6 10 -25 14 -25 6z"/>
<path d="M24092 33037 c10 -8 14 -18 10 -22 -4 -5 -1 -5 6 -1 17 10 15 14 -10
26 -21 10 -21 10 -6 -3z"/>
<path d="M24233 33025 c0 -8 4 -12 9 -9 5 3 6 10 3 15 -9 13 -12 11 -12 -6z"/>
<path d="M24346 32953 c-6 -14 -5 -15 5 -6 7 7 10 15 7 18 -3 3 -9 -2 -12 -12z"/>
<path d="M24377 32949 c7 -7 15 -10 18 -7 3 3 -2 9 -12 12 -14 6 -15 5 -6 -5z"/>
<path d="M24226 32902 c-3 -5 1 -9 9 -9 8 0 12 4 9 9 -3 4 -7 8 -9 8 -2 0 -6
-4 -9 -8z"/>
<path d="M24270 32846 c0 -2 8 -10 18 -17 15 -13 16 -12 3 4 -13 16 -21 21
-21 13z"/>
<path d="M21830 32816 c0 -2 8 -10 18 -17 15 -13 16 -12 3 4 -13 16 -21 21
-21 13z"/>
<path d="M24350 32766 c0 -2 8 -10 18 -17 15 -13 16 -12 3 4 -13 16 -21 21
-21 13z"/>
<path d="M21920 32746 c0 -2 8 -10 18 -17 15 -13 16 -12 3 4 -13 16 -21 21
-21 13z"/>
<path d="M24836 32707 c3 -10 9 -15 12 -12 3 3 0 11 -7 18 -10 9 -11 8 -5 -6z"/>
<path d="M22010 32676 c0 -2 8 -10 18 -17 15 -13 16 -12 3 4 -13 16 -21 21
-21 13z"/>
<path d="M24931 32654 c8 -10 69 -82 135 -159 65 -77 159 -188 208 -247 49
-60 91 -108 93 -108 11 0 -102 327 -121 347 -11 12 -85 54 -241 138 -55 29
-84 41 -74 29z"/>
<path d="M22050 32646 c0 -2 8 -10 18 -17 15 -13 16 -12 3 4 -13 16 -21 21
-21 13z"/>
<path d="M22100 32606 c0 -2 8 -10 18 -17 15 -13 16 -12 3 4 -13 16 -21 21
-21 13z"/>
<path d="M24926 32598 c3 -5 10 -6 15 -3 13 9 11 12 -6 12 -8 0 -12 -4 -9 -9z"/>
<path d="M22090 32570 c8 -5 20 -10 25 -10 6 0 3 5 -5 10 -8 5 -19 10 -25 10
-5 0 -3 -5 5 -10z"/>
<path d="M22149 32567 c6 -8 7 -18 3 -22 -4 -5 -1 -5 6 -1 10 6 10 11 1 22 -6
8 -14 14 -16 14 -3 0 0 -6 6 -13z"/>
<path d="M22174 32539 c-4 -7 -3 -9 4 -5 5 3 12 0 15 -6 2 -7 7 -10 11 -7 4 3
0 12 -8 18 -11 9 -16 9 -22 0z"/>
<path d="M24619 32533 c-13 -16 -12 -17 4 -4 16 13 21 21 13 21 -2 0 -10 -8
-17 -17z"/>
<path d="M25074 32370 c0 -13 4 -16 10 -10 7 7 7 13 0 20 -6 6 -10 3 -10 -10z"/>
<path d="M25205 32000 c10 -11 20 -20 23 -20 3 0 -3 9 -13 20 -10 11 -20 20
-23 20 -3 0 3 -9 13 -20z"/>
<path d="M25303 31905 c0 -8 4 -12 9 -9 5 3 6 10 3 15 -9 13 -12 11 -12 -6z"/>
<path d="M25463 31755 c0 -8 4 -12 9 -9 5 3 6 10 3 15 -9 13 -12 11 -12 -6z"/>
<path d="M20056 28949 c-148 -87 -272 -163 -275 -168 -3 -5 -140 -111 -305
-235 -217 -164 -292 -226 -275 -226 13 -1 150 14 305 32 l281 32 7 111 c3 60
6 151 6 201 l0 90 565 64 c311 35 560 67 553 71 -16 9 -582 189 -588 188 -3
-1 -126 -73 -274 -160z"/>
<path d="M19998 28003 c6 -2 18 -2 25 0 6 3 1 5 -13 5 -14 0 -19 -2 -12 -5z"/>
<path d="M19928 27993 c6 -2 18 -2 25 0 6 3 1 5 -13 5 -14 0 -19 -2 -12 -5z"/>
<path d="M19858 27983 c6 -2 18 -2 25 0 6 3 1 5 -13 5 -14 0 -19 -2 -12 -5z"/>
<path d="M23795 27350 c10 -11 20 -20 23 -20 3 0 -3 9 -13 20 -10 11 -20 20
-23 20 -3 0 3 -9 13 -20z"/>
<path d="M23838 27327 c17 -31 95 -77 132 -80 11 -1 20 -4 20 -8 0 -3 23 -16
50 -27 45 -19 52 -19 57 -6 5 12 7 13 14 3 5 -8 3 -17 -4 -22 -8 -6 -6 -7 6
-3 10 3 23 6 28 6 5 0 9 7 9 15 0 8 6 15 13 15 21 0 34 -14 31 -32 -1 -10 2
-18 7 -18 5 0 9 13 9 28 0 27 -5 30 -177 92 -98 36 -186 66 -196 66 -16 1 -16
0 1 -29z"/>
<path d="M24160 27179 c0 -5 -5 -7 -12 -3 -7 4 -8 3 -4 -4 4 -6 13 -9 21 -6 8
4 12 10 9 15 -7 12 -14 11 -14 -2z"/>
<path d="M24295 27101 c3 -6 48 -40 101 -76 83 -58 97 -65 112 -53 15 11 16
11 4 -3 -10 -13 -9 -19 3 -29 14 -11 19 -7 16 13 0 4 4 7 10 7 8 0 8 4 0 14
-9 11 -6 13 16 10 24 -3 23 -1 -9 12 -38 17 -55 49 -20 38 14 -5 14 -4 2 4 -8
6 -17 9 -21 6 -4 -2 -10 4 -13 13 -6 15 -8 15 -17 3 -8 -11 -12 -12 -16 -2 -2
6 -10 9 -16 5 -8 -4 -7 -1 1 9 10 13 10 17 -4 22 -20 8 -41 -8 -25 -18 6 -4
11 -13 11 -19 0 -7 -5 -4 -11 6 -6 9 -14 15 -19 12 -5 -3 -11 -1 -15 4 -3 6
-12 8 -20 4 -8 -3 -15 1 -15 8 0 7 -3 10 -6 6 -3 -3 -17 -2 -31 4 -15 5 -22 5
-18 0z"/>
<path d="M24660 26943 c74 -34 107 -46 95 -35 -12 10 -133 62 -143 61 -4 0 18
-12 48 -26z"/>
<path d="M24600 26886 c0 -2 8 -10 18 -17 15 -13 16 -12 3 4 -13 16 -21 21
-21 13z"/>
<path d="M24675 26832 c2 -2 69 -50 149 -106 171 -120 181 -132 314 -406 l86
-175 5 50 c5 38 16 -33 45 -285 21 -184 41 -348 45 -364 5 -22 18 28 54 203
l46 231 -78 183 c-140 322 -125 297 -280 462 -98 105 -147 150 -162 150 -12 0
-24 7 -26 15 -4 13 -3 13 7 0 9 -12 11 -12 8 -1 -2 8 -11 15 -19 17 -7 1 -25
5 -39 7 -14 3 -24 10 -22 17 2 9 -6 7 -24 -5 -23 -15 -26 -15 -21 -2 4 11 2
14 -8 10 -8 -3 -13 -9 -10 -13 3 -5 1 -11 -5 -15 -9 -5 -14 6 -12 26 1 3 -12
6 -28 5 -15 -1 -27 -2 -25 -4z m365 -262 c67 -107 115 -188 107 -180 -18 18
-227 348 -235 369 -10 30 6 5 128 -189z"/>
<path d="M20620 26600 c0 -5 5 -10 11 -10 5 0 7 5 4 10 -3 6 -8 10 -11 10 -2
0 -4 -4 -4 -10z"/>
<path d="M20620 26572 c0 -5 7 -9 15 -9 8 0 12 4 9 9 -3 4 -9 8 -15 8 -5 0 -9
-4 -9 -8z"/>
<path d="M20911 26324 c0 -11 3 -14 6 -6 3 7 2 16 -1 19 -3 4 -6 -2 -5 -13z"/>
<path d="M20731 26194 c0 -11 3 -14 6 -6 3 7 2 16 -1 19 -3 4 -6 -2 -5 -13z"/>
<path d="M20747 26137 c-3 -8 1 -14 8 -14 7 0 11 6 8 14 -3 7 -6 13 -8 13 -2
0 -5 -6 -8 -13z"/>
<path d="M20922 26130 c0 -14 2 -19 5 -12 2 6 2 18 0 25 -3 6 -5 1 -5 -13z"/>
<path d="M20895 26081 c-3 -5 -2 -12 3 -15 5 -3 9 1 9 9 0 17 -3 19 -12 6z"/>
<path d="M20757 26073 c-8 -18 -6 -63 4 -63 5 0 7 -4 4 -10 -3 -5 -2 -17 3
-26 7 -12 8 -2 6 32 -6 78 -8 84 -17 67z"/>
<path d="M20764 25939 c-3 -5 0 -17 5 -27 6 -11 8 -22 5 -25 -5 -4 5 -73 22
-147 3 -14 6 -45 8 -70 8 -109 19 -177 32 -197 9 -14 10 -24 3 -28 -5 -4 -8
-14 -5 -23 3 -10 8 -37 11 -62 5 -50 6 -51 31 -167 9 -45 20 -82 23 -81 26 3
51 -4 49 -13 -2 -6 4 -14 12 -16 11 -3 12 -2 2 4 -10 7 -8 13 7 27 20 18 20
19 -4 51 -14 17 -25 39 -25 48 0 10 -4 17 -10 17 -5 0 -10 5 -10 10 0 6 7 10
15 10 14 0 16 24 15 177 -1 139 -5 179 -16 191 -11 10 -18 11 -28 3 -11 -9
-15 -3 -20 31 -4 23 -16 57 -27 74 -11 18 -21 46 -22 63 -1 17 -5 31 -9 31
-13 0 -9 22 7 40 13 14 13 17 0 17 -8 0 -12 -4 -9 -9 3 -4 0 -8 -5 -8 -6 0
-11 -7 -11 -15 0 -8 -5 -15 -11 -15 -5 0 -8 3 -6 8 10 15 17 87 8 72 -6 -8
-13 -11 -18 -7 -4 4 -2 16 4 26 9 14 8 18 -3 18 -8 0 -17 -4 -20 -8z m53 -125
c-3 -3 -12 -4 -19 -1 -8 3 -5 6 6 6 11 1 17 -2 13 -5z m108 -224 c3 -18 2 -20
-10 -10 -8 6 -11 18 -8 26 7 18 12 13 18 -16z m-13 -32 c6 -17 -1 -38 -13 -38
-5 0 -9 11 -9 25 0 26 14 34 22 13z m23 -418 c4 -6 10 -8 15 -5 5 3 11 1 14
-4 4 -5 2 -12 -3 -15 -5 -4 -12 -2 -16 4 -4 6 -10 8 -15 5 -4 -3 -10 2 -14 10
-6 17 9 21 19 5z"/>
<path d="M26048 25559 c-1 -16 -2 -35 -2 -43 -1 -8 40 -46 91 -84 62 -46 116
-98 168 -163 42 -52 82 -98 87 -104 14 -13 -63 127 -78 142 -6 7 -35 57 -63
113 -49 95 -54 100 -84 101 -24 0 -27 2 -14 8 15 5 6 13 -42 33 l-61 27 -2
-30z m75 -46 c-7 -2 -21 -2 -30 0 -10 3 -4 5 12 5 17 0 24 -2 18 -5z"/>
<path d="M25326 25469 c-3 -13 -30 -184 -60 -379 l-55 -355 -91 -284 c-50
-156 -89 -285 -87 -287 2 -2 52 103 111 235 l107 238 -16 34 c-16 33 -15 41
24 204 22 94 44 183 50 197 5 14 7 29 4 32 -4 3 2 13 13 21 10 8 15 15 10 15
-5 0 -4 6 2 13 5 6 20 72 33 145 l23 133 -32 31 -31 31 -5 -24z"/>
<path d="M25532 25051 c-23 -55 -42 -110 -42 -122 0 -12 -20 -58 -44 -103 -24
-45 -54 -106 -66 -136 -12 -30 -60 -143 -107 -250 -46 -107 -91 -222 -98 -254
-12 -52 -22 -68 -77 -123 -34 -35 -59 -63 -55 -63 5 0 0 -13 -9 -29 -18 -31
-13 -68 8 -55 7 5 -8 -19 -35 -51 -26 -33 -102 -130 -170 -216 l-122 -156
-207 -114 c-113 -63 -206 -115 -204 -116 1 -1 39 9 85 22 71 21 102 38 220
123 76 54 220 152 320 217 l183 119 114 228 c63 125 114 230 114 233 0 3 -32
5 -72 5 -95 0 -84 8 15 11 75 2 77 2 73 26 -3 13 -1 21 5 18 5 -4 7 -11 4 -16
-14 -22 12 -5 33 22 21 25 22 32 10 46 -11 14 -10 16 8 11 14 -3 25 1 32 13
16 25 15 28 -8 22 -11 -3 -17 -9 -15 -14 3 -4 -3 -7 -14 -6 -15 1 -17 4 -8 18
6 9 18 14 29 11 10 -2 18 -1 17 4 -5 26 4 46 36 80 19 20 38 34 42 31 3 -4 1
-7 -5 -7 -7 0 -12 -5 -12 -11 0 -5 5 -7 12 -3 7 4 8 3 4 -4 -15 -24 13 -11 33
16 11 15 31 37 43 50 13 13 18 23 10 23 -6 1 -21 2 -31 3 -28 2 -36 13 -37 53
-1 23 2 31 9 24 5 -5 10 -24 9 -41 -1 -26 2 -29 13 -20 8 7 20 8 26 4 9 -5 10
-2 6 10 -4 10 -7 22 -7 28 0 6 -6 8 -13 5 -8 -3 -14 1 -14 9 0 7 4 11 9 8 13
-8 9 21 -4 34 -7 7 -20 12 -29 12 -18 0 -20 15 -6 38 5 7 3 12 -3 12 -6 0 -9
4 -5 9 3 5 1 12 -5 16 -6 4 -8 11 -5 16 4 5 1 9 -5 9 -6 0 -8 5 -4 12 4 7 3 8
-4 4 -6 -4 -9 -12 -6 -20 3 -7 -2 -13 -10 -13 -8 0 -13 4 -10 9 3 5 8 21 10
36 12 66 36 164 59 241 14 47 24 89 23 93 -2 5 -22 -36 -46 -91z m-22 -326 c5
3 12 0 16 -6 5 -9 -1 -10 -20 -5 -26 6 -26 5 -15 -16 15 -30 24 -38 16 -15 -4
10 -1 17 7 17 7 0 13 -7 13 -15 0 -13 -11 -20 -20 -12 -2 1 -16 -6 -32 -16
l-30 -18 23 20 c25 22 29 33 7 25 -12 -5 -12 0 -5 28 6 18 10 35 10 38 0 3 5
-3 11 -13 6 -9 14 -15 19 -12z m35 -65 c-3 -5 -12 -10 -18 -10 -7 0 -6 4 3 10
19 12 23 12 15 0z m-89 -64 c0 -14 -4 -22 -8 -20 -4 3 -8 -6 -8 -20 0 -13 5
-26 12 -28 7 -3 5 -7 -6 -11 -10 -4 -15 -3 -11 3 3 6 2 10 -4 10 -6 0 -6 13 1
38 16 57 24 67 24 28z m106 -64 c-9 -3 -10 -8 -3 -16 8 -9 6 -18 -5 -32 -14
-18 -15 -18 -5 3 7 14 8 24 1 28 -18 11 -12 35 7 28 11 -4 13 -8 5 -11z m-122
-37 c0 -2 -6 -8 -13 -14 -10 -8 -14 -7 -14 2 0 8 6 14 14 14 7 0 13 -1 13 -2z
m50 -19 c0 -7 -10 -16 -23 -18 -15 -3 -24 0 -24 8 0 7 6 10 13 7 6 -2 15 0 19
6 9 15 15 14 15 -3z m-70 -31 c5 3 11 1 15 -5 3 -5 -3 -10 -14 -10 -14 0 -21
6 -20 18 0 10 3 12 6 4 2 -6 9 -10 13 -7z m13 -51 c-3 -8 -9 -12 -13 -9 -5 3
-13 -2 -18 -11 -6 -11 -11 -13 -16 -5 -4 6 -2 11 4 11 7 0 9 8 5 19 -4 15 -1
18 19 14 16 -3 23 -10 19 -19z m-27 -103 c-4 -5 -14 -7 -23 -4 -12 5 -14 3 -8
-8 7 -12 6 -12 -6 -1 -12 11 -11 15 4 23 15 9 16 13 6 27 -7 9 -2 7 10 -4 13
-12 20 -27 17 -33z"/>
<path d="M20908 25093 c7 -3 16 -2 19 1 4 3 -2 6 -13 5 -11 0 -14 -3 -6 -6z"/>
<path d="M25321 25064 c0 -11 3 -14 6 -6 3 7 2 16 -1 19 -3 4 -6 -2 -5 -13z"/>
<path d="M21030 25056 c0 -2 8 -10 18 -17 15 -13 16 -12 3 4 -13 16 -21 21
-21 13z"/>
<path d="M21080 24986 c0 -2 8 -10 18 -17 15 -13 16 -12 3 4 -13 16 -21 21
-21 13z"/>
<path d="M21130 24916 c0 -2 8 -10 18 -17 15 -13 16 -12 3 4 -13 16 -21 21
-21 13z"/>
<path d="M25515 24840 c-3 -5 0 -10 7 -10 9 0 9 -3 -2 -10 -10 -6 -11 -10 -2
-10 6 0 12 -6 12 -13 0 -7 7 -22 15 -33 14 -17 14 -16 2 16 -8 19 -13 43 -11
53 2 18 -11 23 -21 7z"/>
<path d="M21200 24816 c0 -2 8 -10 18 -17 15 -13 16 -12 3 4 -13 16 -21 21
-21 13z"/>
<path d="M21205 24771 c-3 -6 -48 -33 -100 -61 -52 -28 -97 -54 -99 -59 -3 -4
-1 -13 4 -20 6 -10 33 4 109 60 56 40 101 77 101 81 0 11 -8 10 -15 -1z"/>
<path d="M25554 24717 c0 -13 5 -24 11 -24 7 0 10 10 7 24 -2 13 -7 23 -11 23
-4 0 -7 -10 -7 -23z"/>
<path d="M25487 24445 c-23 -17 -39 -62 -25 -71 6 -4 17 1 25 11 17 24 17 49
1 39 -10 -5 -10 -3 0 7 11 12 14 12 21 0 5 -7 11 -9 14 -5 10 17 -18 32 -36
19z"/>
<path d="M21367 24395 c3 -16 10 -41 16 -55 6 -14 9 -29 8 -35 -2 -6 2 -6 8 1
8 7 8 19 -2 40 -8 16 -19 40 -25 54 -11 24 -11 24 -5 -5z"/>
<path d="M21406 24281 c-4 -5 -2 -12 3 -15 5 -4 12 -2 15 3 4 5 2 12 -3 15 -5
4 -12 2 -15 -3z"/>
<path d="M13166 24207 c5 -14 224 -152 224 -142 0 2 -28 23 -62 46 -35 24 -65
45 -68 48 -3 4 -16 12 -30 19 -14 6 -35 19 -48 28 -19 15 -22 15 -16 1z"/>
<path d="M12060 24120 c6 -11 13 -20 16 -20 2 0 0 9 -6 20 -6 11 -13 20 -16
20 -2 0 0 -9 6 -20z"/>
<path d="M13596 23975 c4 -8 10 -12 15 -9 11 6 2 24 -11 24 -5 0 -7 -7 -4 -15z"/>
<path d="M12360 23909 c-79 -33 -148 -59 -152 -59 -15 0 -411 -330 -404 -337
3 -4 1 -11 -4 -18 -7 -8 81 -62 321 -194 181 -100 333 -180 337 -177 9 5 319
-31 332 -39 6 -4 6 -14 0 -28 -11 -25 -52 -269 -46 -274 2 -3 12 0 23 6 10 5
101 24 202 41 101 17 187 33 192 35 11 7 118 158 120 170 1 6 8 15 15 20 7 6
19 42 26 82 7 40 17 73 22 75 6 2 25 -57 43 -129 l33 -133 -134 -275 c-74
-151 -140 -275 -146 -275 -6 0 -25 7 -41 16 -17 8 -32 14 -34 12 -2 -2 5 -106
16 -233 13 -151 24 -232 32 -237 9 -6 9 -8 -1 -8 -8 0 -12 -9 -10 -22 3 -22
-22 -50 -116 -130 -21 -17 -27 -30 -23 -42 4 -11 13 -16 22 -13 10 4 12 1 8
-10 -4 -11 -2 -14 5 -9 7 4 10 2 7 -6 -3 -7 15 -35 39 -61 25 -26 43 -47 40
-47 -3 0 13 -24 36 -52 91 -115 155 -191 146 -172 -3 6 1 11 9 11 11 0 12 -4
4 -13 -10 -13 -1 -29 45 -77 19 -20 19 -20 33 7 8 14 11 31 8 36 -3 5 3 14 13
19 11 6 25 25 33 43 7 18 26 53 41 78 16 24 26 51 23 58 -2 7 -1 11 4 8 14 -9
23 27 9 37 -9 6 -8 7 5 3 14 -4 22 4 37 38 10 24 27 52 37 62 11 11 60 78 110
150 l91 131 -25 69 c-13 38 -42 150 -64 248 -22 99 -43 184 -48 190 -5 6 -27
76 -50 156 -22 80 -50 171 -61 203 -11 31 -20 74 -20 94 0 28 -16 68 -61 148
-33 61 -71 124 -83 140 -12 17 -83 141 -157 276 -74 136 -137 245 -141 242 -5
-2 -8 0 -8 5 0 5 -38 34 -83 65 -75 49 -101 60 -248 101 -90 25 -175 47 -189
49 -15 2 -82 -19 -170 -54z m-374 -295 c-92 -58 -170 -104 -172 -101 -5 5 317
206 330 207 6 0 -66 -48 -158 -106z m1054 93 c0 -1 -39 -41 -87 -87 l-88 -85
85 88 c79 81 90 92 90 84z m125 -1825 c-3 -3 -11 0 -18 7 -9 10 -8 11 6 5 10
-3 15 -9 12 -12z m125 -66 c0 -10 -30 0 -34 11 -4 11 -1 11 14 3 11 -6 20 -12
20 -14z m31 -29 c-10 -9 -11 -8 -5 6 3 10 9 15 12 12 3 -3 0 -11 -7 -18z m100
-60 c-10 -9 -11 -8 -5 6 3 10 9 15 12 12 3 -3 0 -11 -7 -18z m64 5 c-3 -3 -11
0 -18 7 -9 10 -8 11 6 5 10 -3 15 -9 12 -12z m43 -24 c-2 -7 3 -12 10 -10 17
3 15 -3 -5 -19 -10 -8 -14 -9 -10 -2 4 6 3 14 -3 18 -6 4 -8 11 -5 16 9 13 15
11 13 -3z m-27 -35 c12 -16 12 -17 -2 -6 -9 7 -20 9 -24 5 -5 -4 -5 -1 -1 6 9
16 11 15 27 -5z m-364 -88 c0 -8 -4 -12 -9 -9 -5 3 -6 10 -3 15 9 13 12 11 12
-6z m266 -70 c-3 -9 -8 -14 -10 -11 -3 3 -2 9 2 15 9 16 15 13 8 -4z m-122
-103 c-7 -2 -18 1 -23 6 -8 8 -4 9 13 5 13 -4 18 -8 10 -11z"/>
<path d="M22046 23802 c-3 -3 -6 -21 -6 -40 0 -35 25 -75 50 -80 8 -2 20 -10
26 -18 7 -8 16 -14 20 -13 17 4 44 -13 37 -24 -3 -6 -1 -7 5 -3 6 4 19 2 29
-3 42 -23 79 -29 96 -16 16 11 3 24 -117 108 -74 52 -137 93 -140 89z"/>
<path d="M25848 23393 c-233 -97 -607 -317 -673 -395 -15 -17 -48 -49 -75 -70
-45 -36 -48 -41 -39 -66 8 -25 24 -32 157 -76 81 -27 155 -55 165 -64 17 -15
29 -12 195 55 8 3 12 -4 12 -21 0 -14 3 -26 6 -26 4 0 75 20 158 44 83 24 194
54 246 66 52 13 102 26 110 31 23 11 245 267 245 282 0 7 5 12 10 13 36 3 40
14 37 97 l-4 82 -79 58 -79 59 -121 -4 -121 -3 -150 -62z m-421 -270 c-3 -10
-5 -2 -5 17 0 19 2 27 5 18 2 -10 2 -26 0 -35z m-10 -100 c-2 -16 -4 -3 -4 27
0 30 2 43 4 28 2 -16 2 -40 0 -55z m233 -23 c0 -5 -5 -10 -11 -10 -5 0 -7 5
-4 10 3 6 8 10 11 10 2 0 4 -4 4 -10z m-243 -87 c-3 -10 -5 -2 -5 17 0 19 2
27 5 18 2 -10 2 -26 0 -35z m133 -17 c0 -2 -8 -10 -17 -17 -16 -13 -17 -12 -4
4 13 16 21 21 21 13z m-91 -111 c-28 -36 -54 -64 -56 -61 -5 5 95 126 104 126
2 0 -20 -29 -48 -65z"/>
<path d="M23950 23244 c-287 -14 -260 -11 -260 -22 0 -4 32 -16 71 -26 67 -17
91 -17 194 0 l30 5 -35 -20 c-49 -28 -19 -26 38 3 26 13 95 34 155 46 103 22
132 32 85 29 -13 -1 -138 -8 -278 -15z"/>
<path d="M11432 23200 c0 -19 2 -27 5 -17 2 9 2 25 0 35 -3 9 -5 1 -5 -18z"/>
<path d="M24045 23170 c-3 -5 -3 -14 0 -20 3 -5 1 -10 -4 -10 -6 0 -11 -9 -11
-21 0 -11 -4 -28 -9 -38 -6 -10 -12 -28 -14 -42 -2 -13 -7 -31 -10 -39 -19
-48 -34 -130 -21 -117 4 3 65 -50 137 -118 71 -69 136 -125 143 -125 10 0 8 6
-6 20 -11 11 -17 26 -14 35 4 8 1 15 -5 15 -6 0 -11 9 -11 19 0 11 -5 23 -10
26 -6 4 -8 11 -4 16 3 5 0 17 -7 25 -10 12 -9 13 7 8 12 -5 9 1 -8 15 -16 12
-28 32 -28 44 -1 12 -9 40 -20 62 -11 22 -19 48 -20 57 0 9 -4 19 -10 23 -5 3
-13 20 -19 38 -5 18 -12 41 -17 51 -4 12 -4 17 2 13 6 -3 10 5 10 18 0 13 -4
21 -8 19 -4 -3 -8 -1 -8 5 0 6 -8 7 -17 4 -12 -5 -15 -2 -10 10 7 19 2 23 -8
7z"/>
<path d="M24185 23170 c-3 -5 -1 -10 4 -10 6 0 11 5 11 10 0 6 -2 10 -4 10 -3
0 -8 -4 -11 -10z"/>
<path d="M24347 23169 c7 -7 15 -10 18 -7 3 3 -2 9 -12 12 -14 6 -15 5 -6 -5z"/>
<path d="M24460 23160 c-9 -6 -10 -10 -3 -10 6 0 15 5 18 10 8 12 4 12 -15 0z"/>
<path d="M24328 23148 c5 -5 16 -8 23 -6 8 3 3 7 -10 11 -17 4 -21 3 -13 -5z"/>
<path d="M24387 23149 c7 -7 15 -10 18 -7 3 3 -2 9 -12 12 -14 6 -15 5 -6 -5z"/>
<path d="M24560 23110 c-9 -6 -10 -10 -3 -10 6 0 15 5 18 10 8 12 4 12 -15 0z"/>
<path d="M11422 23070 c0 -14 2 -19 5 -12 2 6 2 18 0 25 -3 6 -5 1 -5 -13z"/>
<path d="M24519 23073 c0 -5 -2 -18 -3 -30 -2 -14 2 -19 11 -16 10 4 11 9 4
16 -5 5 -7 16 -4 23 3 8 2 14 -1 14 -3 0 -6 -3 -7 -7z"/>
<path d="M24125 23030 c-3 -5 -1 -10 4 -10 6 0 11 5 11 10 0 6 -2 10 -4 10 -3
0 -8 -4 -11 -10z"/>
<path d="M24503 22996 c3 -7 0 -20 -6 -27 -10 -11 -9 -11 5 0 15 11 15 41 1
41 -3 0 -3 -6 0 -14z"/>
<path d="M24459 22953 c-13 -16 -12 -17 4 -4 16 13 21 21 13 21 -2 0 -10 -8
-17 -17z"/>
<path d="M24436 22915 c-3 -8 0 -17 6 -21 6 -4 8 -3 4 4 -3 5 -1 12 6 14 8 3
9 6 1 11 -6 4 -13 0 -17 -8z"/>
<path d="M24400 22869 c-12 -8 -10 -9 9 -4 17 5 22 4 16 -5 -5 -9 -4 -11 3 -6
7 4 12 11 12 17 0 12 -21 11 -40 -2z"/>
<path d="M24359 22833 c0 -5 -2 -18 -3 -30 -2 -14 2 -19 11 -16 10 4 11 9 4
16 -5 5 -7 16 -4 23 3 8 2 14 -1 14 -3 0 -6 -3 -7 -7z"/>
<path d="M24221 22774 c0 -11 3 -14 6 -6 3 7 2 16 -1 19 -3 4 -6 -2 -5 -13z"/>
<path d="M24343 22756 c3 -7 0 -20 -6 -27 -10 -11 -9 -11 5 0 15 11 15 41 1
41 -3 0 -3 -6 0 -14z"/>
<path d="M24257 22719 c7 -7 15 -10 18 -7 3 3 -2 9 -12 12 -14 6 -15 5 -6 -5z"/>
<path d="M24299 22713 c-13 -16 -12 -17 4 -4 16 13 21 21 13 21 -2 0 -10 -8
-17 -17z"/>
<path d="M24277 22677 c-3 -8 -1 -20 5 -28 8 -11 9 -11 5 3 -3 9 -1 18 6 21 8
2 8 5 0 10 -6 4 -13 1 -16 -6z"/>
<path d="M12020 22259 c-85 -15 -170 -29 -187 -30 -33 -3 -40 -9 -26 -23 4 -4
9 -19 11 -34 2 -14 8 -32 14 -39 12 -15 32 -18 23 -3 -3 6 -4 10 -1 10 3 0 10
-9 15 -19 9 -16 8 -18 -9 -14 -14 4 -20 0 -20 -12 0 -10 6 -15 13 -12 6 2 20
1 29 -2 15 -5 15 -8 1 -26 -13 -16 -15 -17 -10 -2 4 11 1 17 -9 17 -8 0 -12
-5 -9 -11 4 -5 9 -25 12 -42 3 -18 12 -48 20 -67 9 -19 17 -46 18 -60 4 -37 9
-54 19 -62 5 -3 10 -18 12 -34 3 -29 18 -49 37 -49 7 0 12 -9 12 -19 0 -11 6
-21 14 -24 8 -3 11 0 7 6 -3 6 -2 13 2 16 5 3 9 -7 8 -21 -1 -20 8 -33 33 -50
19 -13 29 -23 22 -23 -7 0 -9 -5 -5 -11 4 -8 9 -8 17 0 6 6 16 11 22 11 6 0 5
-3 -2 -8 -15 -9 -5 -62 12 -62 7 0 19 10 27 22 10 14 17 18 22 10 3 -6 -2 -16
-14 -22 -23 -12 -27 -40 -6 -40 8 0 18 -5 22 -12 4 -7 3 -8 -4 -4 -7 4 -12 3
-12 -2 0 -5 9 -12 21 -15 12 -3 18 -10 15 -15 -3 -5 11 -29 32 -52 26 -30 45
-42 64 -42 15 0 29 -7 33 -16 5 -13 3 -13 -11 -1 -15 12 -16 11 -10 -11 6 -25
6 -25 -5 -2 -7 12 -16 22 -22 22 -10 0 8 -28 33 -48 8 -7 15 -18 15 -25 1 -7
6 -11 13 -9 7 1 12 -3 12 -9 0 -6 7 -8 16 -5 15 6 15 4 3 -11 -12 -15 -12 -16
3 -10 13 4 15 2 11 -10 -4 -11 -2 -14 5 -9 8 4 10 2 6 -8 -3 -9 3 -20 15 -28
12 -7 21 -17 21 -22 0 -5 35 -45 78 -90 43 -44 99 -103 125 -131 l47 -50 -89
205 c-49 113 -132 304 -185 425 -94 217 -97 224 -153 475 -31 140 -59 257 -62
261 -3 3 -76 -7 -161 -22z m-87 -249 c3 -11 1 -18 -4 -14 -5 3 -9 12 -9 21 0
11 -6 14 -21 10 -17 -4 -18 -3 -8 9 14 17 34 4 42 -26z m-19 -31 c-9 -14 -27
-6 -30 14 -2 14 1 15 17 6 11 -5 17 -15 13 -20z m49 -12 c3 -8 -3 -13 -17 -14
-11 0 -15 1 -7 4 11 5 11 7 0 14 -11 7 -11 9 2 9 9 0 19 -6 22 -13z m-39 -23
c3 -8 2 -12 -4 -9 -6 3 -10 10 -10 16 0 14 7 11 14 -7z m26 -43 c0 -4 -6 -8
-13 -8 -8 0 -14 6 -14 13 0 7 6 10 14 7 7 -3 13 -8 13 -12z m94 -86 c3 -8 1
-15 -4 -15 -6 0 -10 7 -10 15 0 8 2 15 4 15 2 0 6 -7 10 -15z m31 -55 c10 -11
16 -20 13 -20 -3 0 -13 9 -23 20 -10 11 -16 20 -13 20 3 0 13 -9 23 -20z m-75
0 c0 -5 -2 -10 -4 -10 -3 0 -8 5 -11 10 -3 6 -1 10 4 10 6 0 11 -4 11 -10z
m80 -46 c0 -7 -4 -16 -10 -19 -6 -4 -7 1 -3 11 5 13 3 16 -10 11 -19 -7 -20
-6 -11 17 5 13 9 14 20 5 8 -6 14 -17 14 -25z m43 -19 c4 -8 1 -17 -6 -21 -7
-4 -9 -4 -5 1 4 4 3 14 -3 22 -7 8 -8 13 -1 13 5 0 12 -7 15 -15z m37 -69 c0
-6 -5 -3 -11 7 -6 9 -14 15 -20 12 -5 -3 -6 1 -2 11 6 16 7 15 20 -2 7 -10 13
-23 13 -28z m22 -68 c-8 -8 -9 -4 -5 13 4 13 8 18 11 10 2 -7 -1 -18 -6 -23z
m35 -24 c-3 -3 -12 -4 -19 -1 -8 3 -5 6 6 6 11 1 17 -2 13 -5z m12 -17 c-2 -2
-12 -9 -21 -16 -15 -11 -18 -11 -18 1 0 7 10 14 21 15 12 1 20 1 18 0z m-13
-46 c0 -16 -3 -17 -14 -9 -12 10 -7 19 13 28 1 0 1 -9 1 -19z m40 -19 c0 -10
-6 -19 -13 -19 -8 0 -9 6 -2 19 5 10 11 18 12 18 2 0 3 -8 3 -18z m30 -49 c-3
-4 -6 -1 -6 6 0 7 -4 9 -10 6 -6 -4 -7 1 -3 11 6 15 7 15 15 -1 6 -9 7 -19 4
-22z m58 -79 c5 -14 4 -15 -9 -4 -17 14 -19 20 -6 20 5 0 12 -7 15 -16z"/>
<path d="M13902 22055 c-6 -22 -20 -74 -31 -115 l-19 -75 -1 95 c-1 57 -5 90
-10 85 -11 -12 -203 -626 -198 -632 2 -2 67 -12 143 -21 135 -18 141 -20 215
-65 77 -47 99 -55 99 -37 0 6 5 10 11 10 11 0 275 176 283 188 2 4 -23 54 -55
112 l-60 105 -149 110 c-104 76 -150 116 -150 130 -1 11 -16 49 -34 85 l-34
65 -10 -40z m115 -307 c-3 -8 -6 -5 -6 6 -1 11 2 17 5 13 3 -3 4 -12 1 -19z"/>
<path d="M11810 21346 c0 -2 8 -10 18 -17 15 -13 16 -12 3 4 -13 16 -21 21
-21 13z"/>
<path d="M15441 20674 c-1 -6 -25 -53 -53 -104 -29 -52 -108 -214 -174 -359
l-121 -266 -174 -68 c-96 -37 -158 -65 -139 -62 19 3 152 23 294 45 143 22
263 37 268 32 4 -4 -128 -27 -294 -50 -165 -23 -303 -43 -305 -45 -2 -2 7
-326 19 -720 24 -763 20 -731 62 -617 57 154 98 263 116 310 27 71 70 190 77
213 3 9 10 17 15 17 5 0 7 4 4 9 -3 4 6 37 20 72 14 35 43 111 64 169 21 58
48 130 60 160 27 71 70 190 77 213 3 9 10 17 15 17 5 0 7 4 4 8 -3 5 10 50 29
100 19 50 32 97 30 104 -11 28 29 38 91 23 33 -8 64 -14 71 -15 14 0 -7 90
-43 185 -4 11 -6 24 -5 28 1 5 -10 52 -25 105 -36 135 -64 246 -61 248 1 1 56
-56 121 -127 66 -71 121 -127 123 -125 2 2 -34 118 -81 257 -46 140 -85 249
-85 243z"/>
<path d="M15816 18645 c9 -22 162 -395 341 -830 178 -434 329 -795 336 -801
10 -10 1092 -576 1537 -805 100 -51 771 -503 798 -538 7 -9 14 -14 16 -11 3 7
1578 -1078 1594 -1098 6 -9 12 -13 12 -9 0 9 163 -104 168 -115 2 -5 9 -8 15
-8 6 0 19 -7 29 -17 10 -9 20 -14 22 -12 2 2 -113 283 -255 624 -142 340 -257
621 -255 623 2 1 584 -198 1292 -444 709 -245 1385 -479 1502 -520 116 -40
212 -72 212 -70 0 2 -126 81 -280 176 -155 96 -277 177 -273 183 3 6 1 7 -5 3
-14 -9 -687 407 -687 425 0 7 7 14 15 16 13 4 13 3 0 -6 -11 -8 -11 -11 -2
-11 7 0 15 7 18 15 4 8 13 15 21 15 10 0 13 6 9 16 -3 8 -2 13 3 10 11 -7 21
18 13 30 -5 7 -133 43 -172 49 -3 0 -10 4 -17 8 -6 4 -18 5 -26 1 -8 -3 -17 1
-20 9 -4 11 0 13 13 10 11 -3 27 2 35 11 9 9 24 16 34 16 21 0 57 71 48 93 -8
20 3 29 19 17 9 -8 12 7 12 69 1 44 -4 83 -9 87 -6 3 -6 10 -1 17 6 7 10 25
10 41 0 17 -3 23 -8 15 -5 -6 -6 -19 -3 -28 5 -13 3 -14 -8 -3 -18 17 -1 44
32 49 18 2 21 1 9 -7 -9 -6 -10 -10 -3 -10 21 0 25 21 5 27 -23 6 -29 -5 57
96 23 27 41 52 41 57 0 11 149 -27 -1396 359 l-1320 330 -74 46 c-41 25 -80
45 -87 45 -7 0 -13 3 -13 8 0 9 -71 48 -82 45 -4 -2 -8 2 -8 7 0 6 -17 18 -37
28 -21 9 -44 23 -51 30 -7 6 -20 12 -28 12 -8 0 -14 3 -14 8 0 4 -23 20 -50
35 -28 16 -50 25 -50 22 0 -3 -10 3 -22 15 -12 11 -28 20 -35 20 -7 0 -13 5
-13 10 0 6 -5 10 -12 10 -6 0 -19 6 -27 14 -9 7 -41 27 -71 43 -30 17 -98 56
-150 88 -52 32 -102 60 -110 63 -23 9 -84 52 -92 65 -4 6 -2 15 5 19 7 5 -177
5 -408 2 -231 -4 -421 -8 -423 -9 -3 -3 303 -634 475 -977 73 -148 131 -268
129 -268 -4 0 -2006 2183 -2288 2495 -5 6 -2 -8 8 -30z m2724 -1380 c0 -2 -10
-9 -22 -15 -22 -11 -22 -10 -4 4 21 17 26 19 26 11z m3407 -1171 c-3 -3 -12
-4 -19 -1 -8 3 -5 6 6 6 11 1 17 -2 13 -5z m-170 -40 c-3 -3 -12 -4 -19 -1 -8
3 -5 6 6 6 11 1 17 -2 13 -5z m-510 -120 c-3 -3 -12 -4 -19 -1 -8 3 -5 6 6 6
11 1 17 -2 13 -5z m-40 -10 c-3 -3 -12 -4 -19 -1 -8 3 -5 6 6 6 11 1 17 -2 13
-5z m-40 -10 c-3 -3 -12 -4 -19 -1 -8 3 -5 6 6 6 11 1 17 -2 13 -5z m710 -39
c0 -8 -4 -12 -9 -9 -5 3 -6 10 -3 15 9 13 12 11 12 -6z"/>
<path d="M12301 18167 c-8 -10 -7 -14 2 -14 8 0 14 6 14 14 0 7 -1 13 -2 13
-2 0 -8 -6 -14 -13z"/>
<path d="M12319 18123 c0 -5 -2 -16 -4 -26 -2 -11 -1 -16 3 -13 8 8 14 46 7
46 -3 0 -5 -3 -6 -7z"/>
<path d="M14088 17463 c7 -3 16 -2 19 1 4 3 -2 6 -13 5 -11 0 -14 -3 -6 -6z"/>
<path d="M21950 15810 c0 -22 5 -40 10 -40 6 0 10 18 10 40 0 22 -4 40 -10 40
-5 0 -10 -18 -10 -40z"/>
<path d="M22035 15480 c4 -6 11 -8 16 -5 14 9 11 15 -7 15 -8 0 -12 -5 -9 -10z"/>
<path d="M22078 15473 c6 -2 18 -2 25 0 6 3 1 5 -13 5 -14 0 -19 -2 -12 -5z"/>
<path d="M22128 15463 c6 -2 18 -2 25 0 6 3 1 5 -13 5 -14 0 -19 -2 -12 -5z"/>
<path d="M22178 15453 c6 -2 18 -2 25 0 6 3 1 5 -13 5 -14 0 -19 -2 -12 -5z"/>
<path d="M22228 15443 c7 -3 16 -2 19 1 4 3 -2 6 -13 5 -11 0 -14 -3 -6 -6z"/>
<path d="M22278 15433 c7 -3 16 -2 19 1 4 3 -2 6 -13 5 -11 0 -14 -3 -6 -6z"/>
<path d="M22328 15423 c7 -3 16 -2 19 1 4 3 -2 6 -13 5 -11 0 -14 -3 -6 -6z"/>
<path d="M22378 15413 c7 -3 16 -2 19 1 4 3 -2 6 -13 5 -11 0 -14 -3 -6 -6z"/>
<path d="M21990 15406 c0 -2 7 -7 16 -10 8 -3 12 -2 9 4 -6 10 -25 14 -25 6z"/>
<path d="M22428 15403 c7 -3 16 -2 19 1 4 3 -2 6 -13 5 -11 0 -14 -3 -6 -6z"/>
<path d="M22478 15393 c7 -3 16 -2 19 1 4 3 -2 6 -13 5 -11 0 -14 -3 -6 -6z"/>
<path d="M22668 15353 c7 -3 16 -2 19 1 4 3 -2 6 -13 5 -11 0 -14 -3 -6 -6z"/>
<path d="M22718 15343 c7 -3 16 -2 19 1 4 3 -2 6 -13 5 -11 0 -14 -3 -6 -6z"/>
<path d="M22768 15333 c7 -3 16 -2 19 1 4 3 -2 6 -13 5 -11 0 -14 -3 -6 -6z"/>
<path d="M22808 15323 c6 -2 18 -2 25 0 6 3 1 5 -13 5 -14 0 -19 -2 -12 -5z"/>
<path d="M14008 12103 c5 -21 7 -23 10 -9 2 10 0 22 -6 28 -6 6 -7 0 -4 -19z"/>
<path d="M13939 12085 c-8 -9 -24 -17 -35 -19 -11 -2 -133 -82 -270 -177 -303
-209 -293 -202 -294 -211 0 -8 -251 -370 -333 -481 -30 -40 -94 -133 -144
-208 -87 -130 -94 -137 -135 -147 -24 -6 -283 -67 -576 -137 l-534 -126 -121
32 c-67 17 -139 36 -159 41 -31 9 -68 2 -247 -43 l-210 -53 -206 -307 c-113
-169 -214 -313 -223 -322 -19 -17 -178 -84 -267 -113 -33 -11 -208 -77 -390
-147 -520 -199 -747 -284 -1410 -524 -613 -222 -1198 -433 -1305 -471 -30 -10
-113 -40 -185 -66 -71 -26 -152 -56 -180 -65 -27 -10 -99 -36 -160 -58 -257
-94 -372 -136 -410 -148 -22 -8 -71 -26 -110 -40 -65 -25 -991 -360 -1670
-605 -165 -60 -329 -118 -365 -130 -36 -13 -69 -26 -74 -30 -9 -9 81 -132 248
-340 1183 -1475 2512 -2712 4066 -3782 1477 -1017 3158 -1841 4868 -2387 1819
-581 3700 -877 5595 -882 l409 -1 48 47 c45 44 51 47 87 41 37 -6 37 -6 13 8
-31 19 -33 19 97 1 59 -8 124 -16 143 -18 30 -3 35 -7 32 -27 -2 -12 2 -27 10
-31 22 -15 31 -10 17 9 -12 15 -11 14 8 -2 21 -17 33 -17 235 -7 856 46 1853
166 2513 301 55 11 105 21 112 22 9 1 8 11 -3 37 -13 31 -281 1615 -282 1666
0 11 -5 38 -11 60 -5 22 -13 53 -16 68 -3 15 -10 25 -15 22 -6 -3 -19 -8 -29
-10 -20 -4 -653 -371 -706 -409 -17 -13 -205 -75 -447 -149 l-418 -128 -59 16
c-70 18 -100 19 -51 1 l35 -13 -45 -6 c-25 -3 -153 -9 -285 -13 -132 -4 -251
-8 -265 -9 -14 -1 -44 10 -67 23 -24 13 -43 21 -43 18 0 -3 12 -12 28 -21 26
-15 24 -15 -38 -9 -36 4 -117 6 -180 6 -119 -1 -505 53 -705 99 -90 20 -265
79 -265 89 0 3 28 20 63 37 34 18 79 42 99 54 l37 23 365 -85 c238 -55 357
-86 343 -91 -18 -5 -15 -6 12 -7 l34 -1 -24 -28 -24 -27 28 24 c15 14 27 30
27 38 0 14 158 16 408 4 l133 -6 -116 -64 c-63 -36 -113 -66 -111 -68 2 -2 58
27 125 65 66 38 118 72 114 76 -4 4 0 4 9 1 10 -4 63 1 120 10 56 10 114 17
128 17 14 0 150 31 302 69 153 38 281 69 285 69 5 0 -5 -11 -22 -25 l-30 -25
37 21 c21 11 36 24 34 28 -2 3 156 87 352 186 196 99 361 185 367 190 7 6 100
73 208 149 l196 140 6 45 c3 25 -3 258 -15 516 -11 259 -23 591 -26 740 -3
148 -8 273 -11 278 -3 5 -13 11 -23 15 -16 6 -12 28 53 255 43 151 74 242 79
235 4 -7 8 -8 8 -2 0 5 -5 15 -12 22 -24 24 28 25 189 4 127 -17 167 -20 182
-11 14 10 33 8 84 -4 36 -10 77 -17 91 -17 l25 0 0 -113 c-1 -70 -5 -117 -12
-126 -10 -12 -9 -13 3 -6 13 8 13 7 1 -8 -7 -9 -10 -17 -6 -17 4 0 3 -6 -3
-12 -9 -12 -15 -33 -26 -93 -2 -11 -9 -39 -15 -62 -6 -23 -11 -45 -10 -50 1
-4 1 -10 -1 -13 -3 -9 -10 -45 -13 -65 -1 -12 3 -19 11 -17 8 1 11 -2 7 -7 -3
-6 -12 -8 -20 -4 -21 7 -19 -25 2 -51 10 -12 11 -15 3 -8 -25 22 -28 18 -32
-45 -1 -16 -5 -30 -9 -33 -3 -3 -10 -20 -14 -39 -6 -26 -4 -32 6 -27 8 4 6 1
-3 -7 -19 -15 -25 -32 -8 -22 15 9 12 -4 -5 -21 -8 -9 -16 -31 -16 -50 -2 -38
-2 -41 -13 -66 -5 -10 -6 -25 -2 -33 3 -8 1 -15 -4 -15 -15 0 -12 -17 6 -35
16 -15 16 -16 -2 -13 -15 2 -19 -3 -19 -25 1 -15 -2 -27 -6 -27 -4 0 -6 -13
-5 -29 1 -17 -2 -28 -6 -25 -4 3 -8 -2 -8 -11 0 -9 5 -13 10 -10 5 3 10 2 10
-3 0 -6 -7 -12 -15 -16 -8 -3 -15 -11 -15 -17 0 -8 4 -8 15 1 21 18 19 7 -5
-20 -11 -13 -21 -38 -21 -57 -2 -37 -2 -40 -13 -65 -5 -10 -6 -25 -2 -33 3 -8
1 -15 -4 -15 -15 0 -12 -17 6 -35 16 -15 16 -16 -1 -13 -15 2 -21 -7 -30 -54
-7 -32 -10 -60 -7 -63 3 -3 6 -20 8 -37 2 -24 1 -28 -5 -14 -5 14 -10 16 -15
7 -4 -6 -2 -19 5 -27 10 -12 10 -15 -1 -12 -7 2 -15 -3 -18 -11 -2 -8 0 -11 5
-8 5 3 10 0 10 -8 0 -8 -6 -16 -14 -19 -9 -4 -13 3 -14 22 l0 27 -10 -25 c-6
-14 -12 -41 -14 -60 -2 -19 -4 -35 -5 -35 -1 0 -4 -12 -6 -27 -4 -21 -1 -28
11 -28 9 0 14 -4 10 -10 -3 -5 -12 -7 -19 -4 -9 3 -15 -5 -19 -22 -4 -22 12
-10 89 67 51 51 91 96 88 101 -3 5 -10 6 -15 3 -5 -3 -6 0 -4 7 3 7 15 20 28
27 22 14 22 14 3 -8 -11 -11 -16 -21 -12 -21 13 0 126 113 126 126 0 7 5 16
12 20 7 5 8 2 3 -7 -7 -12 -5 -12 6 -1 11 11 12 14 1 21 -10 6 -8 10 8 14 12
3 20 11 18 19 -3 14 643 958 653 953 3 -2 78 143 167 323 l162 327 148 467
c82 257 145 465 140 462 -4 -3 -8 -2 -8 3 0 4 45 264 100 576 55 313 111 646
125 740 48 325 135 920 135 924 0 3 -7 3 -16 1 -14 -3 -858 -1617 -850 -1625
2 -2 70 13 150 33 l147 37 131 153 c72 85 133 154 135 154 5 0 -1116 -1491
-1135 -1510 -21 -20 -62 -76 442 599 240 322 434 586 432 588 -1 2 -552 -168
-1223 -377 -671 -209 -1226 -380 -1233 -380 -21 0 -1823 -561 -1862 -580 l-37
-18 70 139 c38 77 67 139 65 139 -3 0 -59 -107 -126 -237 -66 -131 -124 -241
-129 -246 -7 -7 -1231 482 -1255 502 -6 5 -337 169 -735 365 -399 196 -727
360 -730 365 -9 14 -210 112 -607 296 l-370 172 63 -271 c35 -149 83 -354 107
-456 29 -119 41 -190 35 -200 -4 -8 -9 -12 -10 -7 -1 4 -2 10 -3 15 -1 4 -5
13 -9 20 -5 6 -5 17 -1 24 4 6 3 8 -3 5 -5 -3 -101 271 -227 653 -157 478
-225 669 -246 698 -16 22 -43 68 -60 103 -45 89 -360 641 -377 661 -8 9 -16
22 -17 30 -2 7 -6 21 -10 30 -4 9 -4 22 0 29 4 7 3 9 -3 6 -13 -8 -27 39 -17
55 5 7 2 8 -6 3 -10 -6 -12 -4 -7 8 3 10 2 17 -3 17 -4 0 -16 24 -26 53 -9 28
-19 58 -22 65 -2 7 4 12 14 12 16 0 15 3 -5 13 -28 14 -65 108 -55 141 4 15 3
17 -4 8 -7 -11 -10 -10 -16 3 -9 25 -8 28 10 21 13 -5 14 -4 6 7 -7 8 -8 18
-4 23 4 4 -2 2 -12 -6 -11 -8 -17 -10 -13 -3 4 6 3 15 -3 18 -6 4 -8 16 -4 27
4 14 2 18 -5 14 -7 -4 -11 1 -11 13 0 11 -5 23 -11 26 -6 4 -8 13 -5 21 3 8 1
14 -5 14 -6 0 -9 6 -6 14 3 8 3 16 -1 18 -4 2 -15 25 -24 52 -16 44 -16 48 -1
42 13 -5 14 -4 3 9 -7 8 -16 13 -20 10 -4 -3 -15 21 -24 53 -10 31 -20 63 -23
71 -4 9 -1 11 8 7 8 -4 6 -1 -4 7 -22 19 -42 79 -24 75 7 -2 12 2 12 7 0 6 -3
9 -7 8 -5 -2 -8 3 -8 10 0 9 -3 8 -9 -2 -6 -10 -11 -5 -16 19 -4 18 -15 51
-25 74 -15 32 -16 44 -7 55 8 10 8 13 1 8 -17 -10 -57 92 -44 109 8 9 7 14 -1
20 -8 5 -9 3 -4 -6 5 -8 4 -11 -3 -7 -13 9 -43 97 -36 108 3 5 1 9 -4 9 -6 0
-15 14 -21 31 -10 29 -9 30 7 18 11 -9 9 -4 -4 11 -12 14 -27 43 -33 65 -7 22
-16 49 -21 60 -5 11 -18 45 -29 76 -17 53 -18 58 -2 75 15 17 15 17 -2 5 -22
-17 -29 -11 -32 28 -1 17 -8 37 -14 45 -7 8 -10 20 -6 26 3 5 1 10 -4 10 -6 0
-11 4 -11 9 0 5 10 7 23 5 17 -3 16 -2 -5 6 -14 6 -29 18 -32 27 -4 10 -2 14
7 10 8 -3 14 1 14 8 0 8 -7 11 -16 7 -14 -5 -14 -3 -2 11 7 9 18 14 24 10 6
-3 2 5 -9 19 -10 14 -21 24 -23 22 -2 -2 1 -10 7 -17 7 -8 9 -17 5 -20 -9 -9
-23 -9 -21 1 1 4 -3 17 -10 30 -7 12 -10 27 -7 32 3 6 1 10 -4 10 -6 0 -11 6
-11 14 0 7 -7 26 -14 42 -16 29 -10 56 6 33 8 -11 9 -11 5 1 -2 8 -9 15 -16
15 -12 0 -53 88 -48 104 0 3 -4 16 -11 29 -7 12 -10 22 -6 22 3 0 1 7 -6 15
-11 13 -10 18 5 29 17 12 17 13 1 19 -10 4 -15 3 -11 -3 3 -6 2 -10 -2 -10
-14 0 -71 177 -62 189 5 6 6 9 2 6 -18 -14 -58 96 -41 113 6 6 5 12 -3 17 -8
6 -10 4 -4 -6 5 -10 5 -11 -3 -4 -16 15 -50 107 -47 128 2 9 -1 17 -6 17 -6 0
-7 5 -4 10 3 6 1 10 -5 10 -6 0 -8 11 -6 25 3 13 0 28 -6 31 -7 5 -8 2 -3 -7
6 -10 5 -11 -4 -3 -6 6 -13 24 -14 41 -1 17 -5 29 -8 27 -4 -2 -12 18 -19 44
-7 26 -16 52 -20 57 -3 6 -12 29 -19 53 -7 26 -16 40 -23 36 -6 -4 -9 -1 -6 7
3 8 1 23 -5 34 -10 19 -11 19 -17 -5 -4 -14 -10 93 -14 237 l-7 263 147 307
c80 170 153 320 160 336 16 31 15 34 -7 12z m10135 -5260 c-4 -8 -11 -15 -16
-15 -6 0 -5 6 2 15 7 8 14 15 16 15 2 0 1 -7 -2 -15z m-164 -1139 c0 -2 -8
-10 -17 -17 -16 -13 -17 -12 -4 4 13 16 21 21 21 13z m-80 -70 c0 -2 -8 -10
-17 -17 -16 -13 -17 -12 -4 4 13 16 21 21 21 13z m-70 -59 c0 -2 -10 -12 -22
-23 l-23 -19 19 23 c18 21 26 27 26 19z m-7849 -52 c93 -19 119 -30 49 -21
-122 15 -162 17 -157 9 4 -6 0 -10 -8 -10 -13 0 -13 3 0 17 8 9 12 20 8 25 -5
4 -1 6 8 3 8 -3 53 -14 100 -23z m7769 -18 c0 -2 -10 -12 -22 -23 l-23 -19 19
23 c18 21 26 27 26 19z m-7854 -29 c3 -4 -1 -5 -10 -4 -8 1 -18 5 -22 8 -3 4
1 5 10 4 8 -1 18 -5 22 -8z m822 -110 c111 -24 202 -46 202 -49 0 -3 -132 20
-292 52 -161 31 -294 56 -295 55 -1 -1 31 -60 70 -131 73 -132 99 -188 99
-215 1 -35 29 -414 31 -416 1 -1 155 -52 342 -113 187 -62 346 -114 354 -117
8 -2 12 -7 9 -9 -2 -3 -159 47 -347 110 l-343 114 74 -77 c40 -43 210 -224
377 -402 283 -303 288 -309 75 -90 -125 129 -289 297 -364 373 l-135 137 -2
-297 c-6 -720 -16 -1224 -24 -1212 -5 8 -9 24 -9 37 0 12 -4 22 -9 22 -6 0
-10 130 -10 333 -1 329 -10 541 -21 483 -4 -24 -11 -7 -39 89 -19 65 -47 148
-63 184 -27 61 -29 63 -24 26 20 -152 9 -128 -33 70 -27 127 -49 221 -50 209
-9 -183 -43 -978 -42 -1001 0 -18 -4 -35 -10 -38 -5 -4 -9 -3 -8 2 1 4 0 13
-1 18 -4 21 35 827 52 1075 1 14 -1 30 -5 36 -4 7 15 13 55 18 34 3 63 7 64 9
2 1 -33 124 -77 272 -44 149 -84 286 -89 307 -8 27 -22 44 -60 68 -28 18 -50
34 -50 37 0 2 6 1 13 -4 6 -4 68 -42 137 -85 69 -42 126 -74 128 -69 1 4 -19
69 -46 143 l-48 135 105 -23 c58 -13 197 -43 309 -66z m6952 69 c0 -2 -10 -12
-22 -23 l-23 -19 19 23 c18 21 26 27 26 19z m-7772 -58 c-3 -8 -7 -3 -11 10
-4 17 -3 21 5 13 5 -5 8 -16 6 -23z m44 -4 c3 -13 1 -22 -3 -19 -9 5 -13 44
-5 44 2 0 6 -11 8 -25z m7648 -8 c0 -2 -10 -12 -22 -23 l-23 -19 19 23 c18 21
26 27 26 19z m-7630 -67 c0 -5 -5 -10 -11 -10 -5 0 -7 5 -4 10 3 6 8 10 11 10
2 0 4 -4 4 -10z m7550 -3 c0 -2 -10 -12 -22 -23 l-23 -19 19 23 c18 21 26 27
26 19z m-80 -70 c0 -2 -10 -12 -22 -23 l-23 -19 19 23 c18 21 26 27 26 19z
m-7440 -40 c0 -7 -4 -6 -10 3 -8 13 -10 12 -10 -4 0 -11 -3 -17 -6 -13 -4 3
-4 13 0 22 6 18 26 11 26 -8z m6910 -1 c0 -2 -8 -10 -17 -17 -16 -13 -17 -12
-4 4 13 16 21 21 21 13z m450 -29 c0 -2 -10 -12 -22 -23 l-23 -19 19 23 c18
21 26 27 26 19z m-480 -11 c0 -2 -8 -10 -17 -17 -16 -13 -17 -12 -4 4 13 16
21 21 21 13z m-6003 -143 c155 -64 281 -118 279 -120 -4 -4 -549 212 -576 228
-13 7 -13 8 0 9 8 0 142 -53 297 -117z m5973 103 c0 -2 -8 -10 -17 -17 -16
-13 -17 -12 -4 4 13 16 21 21 21 13z m430 -19 c0 -2 -10 -12 -22 -23 l-23 -19
19 23 c18 21 26 27 26 19z m-460 -21 c0 -2 -8 -10 -17 -17 -16 -13 -17 -12 -4
4 13 16 21 21 21 13z m-30 -40 c0 -2 -8 -10 -17 -17 -16 -13 -17 -12 -4 4 13
16 21 21 21 13z m410 -9 c0 -2 -10 -12 -22 -23 l-23 -19 19 23 c18 21 26 27
26 19z m-930 -51 c0 -3 -4 -8 -10 -11 -5 -3 -10 -1 -10 4 0 6 5 11 10 11 6 0
10 -2 10 -4z m850 -19 c0 -2 -10 -12 -22 -23 l-23 -19 19 23 c18 21 26 27 26
19z m-2632 -73 c34 -9 64 -20 67 -24 2 -4 -53 -12 -123 -19 -70 -7 -138 -15
-152 -18 -15 -3 3 13 45 40 39 25 77 44 85 42 8 -2 43 -11 78 -21z m2562 13
c0 -2 -12 -14 -27 -28 l-28 -24 24 28 c23 25 31 32 31 24z m-5850 -17 c8 -5
11 -10 5 -10 -5 0 -17 5 -25 10 -8 5 -10 10 -5 10 6 0 17 -5 25 -10z m838 -28
c-20 -2 -28 -10 -31 -30 -3 -20 -4 -18 -4 8 1 34 2 36 31 31 31 -6 31 -6 4 -9z
m456 -78 c166 -30 306 -60 311 -66 7 -7 4 -9 -10 -5 -11 3 -156 29 -322 58
-167 29 -303 57 -303 61 0 12 2 12 324 -48z m4476 53 c0 -2 -12 -14 -27 -28
l-28 -24 24 28 c23 25 31 32 31 24z m-80 -70 c0 -2 -12 -14 -27 -28 l-28 -24
24 28 c23 25 31 32 31 24z m-5700 -253 c14 -15 -8 1 -47 35 -40 35 -73 66 -73
68 0 8 92 -72 120 -103z m989 -426 c-68 -169 -125 -305 -127 -303 -2 2 177
684 195 740 5 15 13 0 31 -56 l25 -76 -124 -305z m-2034 177 c-5 -109 -11
-181 -16 -173 -7 10 -9 9 -9 -4 0 -10 5 -18 11 -18 6 0 7 -5 2 -12 -4 -7 -6
-21 -4 -32 1 -10 -2 -15 -7 -12 -14 9 -12 107 2 99 6 -3 5 0 -1 8 -14 14 -18
33 -5 26 4 -3 8 43 9 102 1 58 5 130 8 159 13 104 17 41 10 -143z m512 43 c-3
-8 -6 -5 -6 6 -1 11 2 17 5 13 3 -3 4 -12 1 -19z m10 -40 c-3 -8 -6 -5 -6 6
-1 11 2 17 5 13 3 -3 4 -12 1 -19z m6068 -7 c3 -5 2 -12 -3 -15 -5 -3 -9 1 -9
9 0 17 3 19 12 6z m-6048 -63 c-3 -8 -6 -5 -6 6 -1 11 2 17 5 13 3 -3 4 -12 1
-19z m10 -40 c-3 -8 -6 -5 -6 6 -1 11 2 17 5 13 3 -3 4 -12 1 -19z m6020 -3
c0 -8 -4 -12 -9 -9 -5 3 -6 10 -3 15 9 13 12 11 12 -6z m43 -1 c0 -8 -19 -13
-24 -6 -3 5 1 9 9 9 8 0 15 -2 15 -3z m-5875 -669 c91 -335 168 -617 170 -626
3 -8 -1 -24 -9 -34 -21 -29 -46 -4 -39 39 3 19 1 36 -5 40 -6 3 -8 14 -5 25 2
10 -63 284 -146 609 -83 324 -151 594 -150 598 1 18 21 -52 184 -651z m5852
613 c-3 -7 -5 -2 -5 12 0 14 2 19 5 13 2 -7 2 -19 0 -25z m-6330 -20 c-3 -7
-5 -2 -5 12 0 14 2 19 5 13 2 -7 2 -19 0 -25z m6328 -8 c3 -6 -1 -7 -9 -4 -18
7 -21 14 -7 14 6 0 13 -4 16 -10z m-3161 -16 c8 -3 13 -11 10 -18 -3 -7 0 -34
6 -60 l10 -48 -67 -78 c-110 -126 -208 -248 -173 -214 32 31 33 31 54 14 118
-99 154 -127 170 -133 15 -6 17 -5 8 6 -13 15 6 35 106 117 29 23 49 46 44 49
-5 3 -11 20 -14 38 -4 26 -2 30 11 23 9 -4 30 -23 46 -40 34 -36 73 -61 59
-38 -6 11 -5 11 9 -1 9 -7 17 -19 17 -26 0 -8 5 -15 11 -17 6 -2 -10 -49 -37
-113 -26 -61 -47 -115 -47 -121 0 -6 -42 -33 -92 -59 l-92 -49 -101 43 -101
43 -32 96 c-17 54 -38 107 -46 120 -13 21 -12 39 1 150 9 70 17 138 18 153 2
19 24 42 93 96 91 72 101 78 129 67z m-3448 -116 c-1 -45 -5 -62 -16 -65 -12
-4 -12 -3 -2 5 10 7 12 24 9 60 -4 43 -1 62 8 62 2 0 2 -28 1 -62z m3498 46
c13 -5 14 -9 5 -20 -9 -11 -9 -14 0 -14 7 0 9 -5 6 -11 -8 -11 -34 18 -35 39
0 14 2 14 24 6z m58 -79 c39 -43 42 -49 30 -53 -7 -2 -10 -7 -8 -11 3 -4 -1
-8 -9 -8 -8 0 -13 2 -10 5 2 3 -7 13 -20 24 -14 11 -30 28 -35 39 -9 16 -7 19
14 19 13 0 31 -7 38 -15z m2955 -60 c0 -8 -4 -12 -9 -9 -5 3 -6 10 -3 15 9 13
12 11 12 -6z m-2907 -35 c0 -5 -5 -10 -11 -10 -5 0 -7 5 -4 10 3 6 8 10 11 10
2 0 4 -4 4 -10z m36 -21 c1 -5 2 -14 3 -20 0 -5 6 -7 13 -3 6 4 8 3 5 -3 -4
-5 8 -24 25 -41 16 -18 26 -32 21 -32 -19 0 -82 76 -80 97 1 21 11 22 13 2z
m-1936 -289 c96 -157 186 -303 200 -326 l25 -40 -2 190 -1 191 13 -220 c7
-121 9 -225 5 -230 -5 -6 -2 -21 5 -35 7 -14 10 -31 6 -40 -5 -8 11 -100 35
-210 24 -107 46 -209 48 -227 2 -18 8 -38 12 -45 5 -9 3 -9 -10 1 -9 8 -15 20
-12 27 3 7 1 16 -4 19 -5 3 -9 13 -9 23 0 35 -118 564 -128 570 -8 6 -73 120
-357 622 -10 19 -15 31 -9 25 5 -5 88 -138 183 -295z m-229 60 c100 -107 159
-172 130 -145 -84 80 -337 349 -324 344 6 -2 93 -92 194 -199z m5030 150 c6 0
7 4 4 10 -3 5 0 7 8 4 7 -2 14 -11 14 -18 0 -17 -40 -5 -43 13 -1 6 0 7 3 1 2
-5 9 -10 14 -10z m-4584 -87 c-2 -16 -4 -3 -4 27 0 30 2 43 4 28 2 -16 2 -40
0 -55z m-1791 -150 c-10 -10 -19 5 -10 18 6 11 8 11 12 0 2 -7 1 -15 -2 -18z
m2343 -380 c-13 -202 -25 -351 -27 -330 -2 21 4 183 12 360 9 177 16 331 16
342 0 14 3 16 11 8 9 -9 5 -107 -12 -380z m3958 352 c0 -8 -4 -12 -9 -9 -5 3
-6 10 -3 15 9 13 12 11 12 -6z m-4697 -162 l75 -78 -77 75 c-72 69 -83 80 -75
80 1 0 36 -35 77 -77z m4691 27 c6 0 7 4 4 10 -3 5 0 7 8 4 7 -2 14 -11 14
-18 0 -17 -40 -5 -43 13 -1 6 0 7 3 1 2 -5 9 -10 14 -10z m170 -97 c13 -16 12
-17 -3 -4 -14 11 -18 11 -18 1 0 -8 -3 -11 -6 -7 -5 5 3 27 10 27 2 0 10 -8
17 -17z m-86 -113 c-16 -16 -34 -30 -39 -29 -6 0 -5 3 2 6 6 2 9 10 6 15 -4 6
-2 8 3 5 6 -4 18 2 28 13 10 11 20 20 23 20 3 0 -7 -13 -23 -30z m-4608 -470
l0 -115 -7 110 c-4 61 -7 191 -7 290 l1 180 7 -175 c3 -96 6 -227 6 -290z
m4501 371 c10 -6 10 -10 -3 -21 -8 -7 -15 -10 -15 -7 0 3 -3 12 -6 21 -7 17 3
20 24 7z m-81 -36 c0 -8 -4 -12 -9 -9 -5 3 -6 10 -3 15 9 13 12 11 12 -6z
m-4298 -90 c0 -5 -11 10 -24 35 -13 25 -24 50 -24 55 0 6 11 -10 24 -35 13
-25 24 -49 24 -55z m4304 48 c-5 -12 -3 -14 8 -8 12 8 12 6 0 -8 -7 -9 -19
-17 -25 -17 -6 0 -5 4 3 9 10 6 10 10 1 16 -9 6 -9 10 1 16 19 12 19 11 12 -8z
m-3886 -310 c-2 -16 -4 -3 -4 27 0 30 2 43 4 28 2 -16 2 -40 0 -55z m219 -175
c43 -62 102 -148 132 -191 54 -79 62 -107 20 -71 l-23 19 19 -23 c23 -27 16
-38 -16 -22 -22 11 -22 11 2 -9 l25 -21 -40 0 c-45 0 -71 -12 -61 -28 5 -8 15
-8 31 -2 20 7 25 6 25 -5 0 -9 -10 -15 -26 -15 -14 0 -23 -4 -19 -10 3 -5 12
-7 20 -3 8 3 15 1 15 -5 0 -14 -27 -23 -46 -15 -13 5 -15 1 -10 -18 l7 -24
-14 23 c-7 12 -16 20 -19 16 -4 -3 -4 5 -2 18 5 22 4 22 -8 -3 -11 -21 -17
-24 -38 -18 -14 4 -18 7 -9 8 19 1 48 31 30 31 -6 0 -11 -4 -11 -10 0 -5 -6
-10 -14 -10 -13 0 -28 135 -42 375 -2 44 -6 90 -9 103 -2 12 -2 22 0 22 2 0
38 -51 81 -112z m-229 30 c-3 -7 -5 -2 -5 12 0 14 2 19 5 13 2 -7 2 -19 0 -25z
m-367 -23 c0 -8 -4 -15 -10 -15 -5 0 -7 7 -4 15 4 8 8 15 10 15 2 0 4 -7 4
-15z m7 -56 c-3 -11 -2 -19 2 -19 4 0 8 -6 9 -12 0 -7 7 -40 16 -74 8 -33 15
-69 15 -80 1 -41 5 -54 15 -56 22 -3 31 -5 48 -12 9 -4 25 -9 35 -11 10 -2 18
-4 18 -5 0 -2 38 -11 53 -12 6 -1 12 -5 12 -10 0 -5 8 -7 19 -3 10 3 24 -1 31
-10 7 -8 16 -12 21 -9 5 3 8 0 7 -8 -2 -8 6 -13 19 -12 12 0 19 -4 16 -9 -3
-5 0 -7 8 -5 8 3 13 14 12 24 -1 10 0 14 3 7 3 -7 11 -10 19 -7 7 3 16 1 20
-5 3 -6 0 -9 -8 -5 -8 3 -18 1 -22 -5 -6 -11 7 -19 42 -26 10 -2 19 -4 21 -5
1 -2 5 -3 10 -4 4 -1 36 -11 72 -23 36 -12 74 -23 84 -25 12 -2 -14 -20 -72
-51 -54 -29 -97 -45 -104 -41 -8 5 -7 0 2 -12 14 -18 14 -18 -3 -5 -10 8 -26
16 -35 16 -16 2 -330 94 -342 101 -3 1 -3 38 1 81 4 43 3 83 -2 89 -8 10 -59
236 -59 262 0 7 5 10 11 6 6 -3 9 -15 6 -25z m-157 -59 c0 -22 -4 -40 -10 -40
-5 0 -10 18 -10 40 0 22 5 40 10 40 6 0 10 -18 10 -40z m-3 -112 c-3 -7 -5 -2
-5 12 0 14 2 19 5 13 2 -7 2 -19 0 -25z m13 -51 c0 -5 -4 -5 -10 -2 -5 3 -10
14 -10 23 0 15 2 15 10 2 5 -8 10 -19 10 -23z m927 -113 c-3 -3 -12 -4 -19 -1
-8 3 -5 6 6 6 11 1 17 -2 13 -5z m-322 -13 c-3 -5 3 -12 12 -14 15 -4 15 -5 2
-6 -9 0 -22 6 -29 14 -10 12 -9 15 4 15 10 0 15 -4 11 -9z m95 -25 c0 -2 -9
-6 -20 -9 -11 -3 -18 -1 -14 4 5 9 34 13 34 5z m51 -23 c-12 -20 -14 -14 -5
12 4 9 9 14 11 11 3 -2 0 -13 -6 -23z"/>
<path d="M19378 3873 c7 -3 16 -2 19 1 4 3 -2 6 -13 5 -11 0 -14 -3 -6 -6z"/>
<path d="M19572 3861 c-9 -6 -8 -12 8 -26 11 -10 23 -15 27 -11 4 4 3 10 -3
14 -6 4 -13 12 -15 19 -2 7 -9 9 -17 4z"/>
<path d="M18740 2020 c0 -5 5 -10 10 -10 6 0 10 5 10 10 0 6 -4 10 -10 10 -5
0 -10 -4 -10 -10z"/>
<path d="M14022 12050 c0 -14 2 -19 5 -12 2 6 2 18 0 25 -3 6 -5 1 -5 -13z"/>
<path d="M13985 12041 c-3 -5 -2 -12 3 -15 5 -3 9 1 9 9 0 17 -3 19 -12 6z"/>
<path d="M14027 11990 c-3 -11 -1 -20 4 -20 5 0 9 9 9 20 0 11 -2 20 -4 20 -2
0 -6 -9 -9 -20z"/>
<path d="M14037 11947 c-3 -8 -1 -20 4 -28 6 -10 9 -7 9 14 0 29 -5 35 -13 14z"/>
<path d="M14043 11893 c4 -3 2 -11 -3 -18 -7 -8 -5 -12 5 -12 8 0 15 9 15 19
0 10 -5 18 -12 18 -6 0 -8 -3 -5 -7z"/>
<path d="M14061 11824 c0 -11 3 -14 6 -6 3 7 2 16 -1 19 -3 4 -6 -2 -5 -13z"/>
<path d="M14053 11774 c0 -7 6 -15 14 -18 8 -3 13 2 13 13 0 10 -6 18 -13 18
-8 0 -14 -6 -14 -13z"/>
<path d="M14052 11745 c4 -4 3 -14 -3 -21 -7 -9 -6 -14 3 -20 7 -4 10 -4 6 1
-4 4 -3 14 3 21 7 9 6 14 -3 20 -7 4 -10 4 -6 -1z"/>
<path d="M14080 11730 c-8 -26 -7 -41 2 -32 6 6 8 16 5 24 -3 7 -6 11 -7 8z"/>
<path d="M14087 11660 c3 -11 7 -20 9 -20 2 0 4 9 4 20 0 11 -4 20 -9 20 -5 0
-7 -9 -4 -20z"/>
<path d="M14060 11640 c0 -5 5 -10 11 -10 5 0 7 5 4 10 -3 6 -8 10 -11 10 -2
0 -4 -4 -4 -10z"/>
<path d="M14101 11604 c0 -11 3 -14 6 -6 3 7 2 16 -1 19 -3 4 -6 -2 -5 -13z"/>
<path d="M14111 11554 c0 -11 3 -14 6 -6 3 7 2 16 -1 19 -3 4 -6 -2 -5 -13z"/>
<path d="M14117 11491 c-4 -17 -3 -21 5 -13 5 5 8 16 6 23 -3 8 -7 3 -11 -10z"/>
<path d="M14118 11453 c6 -2 10 -9 6 -14 -3 -5 0 -9 5 -9 6 0 11 7 11 15 0 8
-8 15 -17 14 -11 0 -13 -3 -5 -6z"/>
<path d="M14100 11391 c0 -6 4 -13 10 -16 6 -3 7 1 4 9 -7 18 -14 21 -14 7z"/>
<path d="M14132 11381 c7 -9 14 -18 15 -20 2 -2 3 5 3 16 0 11 -7 20 -15 20
-12 0 -12 -3 -3 -16z"/>
<path d="M14151 11334 c0 -11 3 -14 6 -6 3 7 2 16 -1 19 -3 4 -6 -2 -5 -13z"/>
<path d="M14156 11275 c-3 -8 -1 -15 4 -15 6 0 10 7 10 15 0 8 -2 15 -4 15 -2
0 -6 -7 -10 -15z"/>
<path d="M14110 11265 c0 -8 2 -15 4 -15 2 0 6 7 10 15 3 8 1 15 -4 15 -6 0
-10 -7 -10 -15z"/>
<path d="M14171 11224 c0 -11 3 -14 6 -6 3 7 2 16 -1 19 -3 4 -6 -2 -5 -13z"/>
<path d="M14181 11164 c0 -11 3 -14 6 -6 3 7 2 16 -1 19 -3 4 -6 -2 -5 -13z"/>
<path d="M14185 11121 c-3 -5 -1 -12 5 -16 5 -3 10 1 10 9 0 18 -6 21 -15 7z"/>
<path d="M14194 11062 c-9 -5 -8 -11 2 -20 12 -11 14 -9 14 8 0 22 0 23 -16
12z"/>
<path d="M14200 11011 c0 -6 5 -13 10 -16 6 -3 10 1 10 9 0 9 -4 16 -10 16 -5
0 -10 -4 -10 -9z"/>
<path d="M14221 10944 c0 -11 3 -14 6 -6 3 7 2 16 -1 19 -3 4 -6 -2 -5 -13z"/>
<path d="M13730 10839 c0 -5 5 -7 10 -4 6 3 10 8 10 11 0 2 -4 4 -10 4 -5 0
-10 -5 -10 -11z"/>
<path d="M14230 10834 c0 -8 5 -12 10 -9 6 3 10 10 10 16 0 5 -4 9 -10 9 -5 0
-10 -7 -10 -16z"/>
<path d="M13750 10786 c0 -2 8 -10 18 -17 15 -13 16 -12 3 4 -13 16 -21 21
-21 13z"/>
<path d="M14295 10510 c-3 -5 -1 -10 4 -10 6 0 11 5 11 10 0 6 -2 10 -4 10 -3
0 -8 -4 -11 -10z"/>
<path d="M13910 10486 c0 -2 8 -10 18 -17 15 -13 16 -12 3 4 -13 16 -21 21
-21 13z"/>
<path d="M13890 10476 c0 -11 30 -39 36 -34 2 3 -5 13 -16 23 -11 10 -20 15
-20 11z"/>
<path d="M14300 10450 c0 -5 5 -10 10 -10 6 0 10 5 10 10 0 6 -4 10 -10 10 -5
0 -10 -4 -10 -10z"/>
<path d="M14317 10403 c-4 -3 -7 -13 -7 -22 1 -13 3 -13 11 2 11 19 8 33 -4
20z"/>
<path d="M14276 10388 c3 -5 10 -6 15 -3 13 9 11 12 -6 12 -8 0 -12 -4 -9 -9z"/>
<path d="M14326 10347 c3 -10 9 -15 12 -12 3 3 0 11 -7 18 -10 9 -11 8 -5 -6z"/>
<path d="M13977 10230 c-3 -11 -2 -22 2 -24 4 -3 8 6 9 20 2 29 -4 31 -11 4z"/>
<path d="M14344 10225 c3 -23 12 -26 13 -5 1 11 -2 20 -7 20 -4 0 -7 -7 -6
-15z"/>
<path d="M13975 10161 c3 -6 14 -9 25 -8 23 2 17 10 -11 14 -11 2 -18 -1 -14
-6z"/>
<path d="M14360 10120 c-13 -8 -12 -10 3 -10 9 0 17 5 17 10 0 12 -1 12 -20 0z"/>
<path d="M14350 10049 c0 -5 5 -7 10 -4 6 3 10 8 10 11 0 2 -4 4 -10 4 -5 0
-10 -5 -10 -11z"/>
<path d="M14369 9968 c0 -2 -2 -14 -5 -28 -3 -17 -1 -21 5 -11 5 7 13 11 19 7
16 -9 26 14 13 27 -9 9 -11 8 -5 -6 5 -13 2 -16 -10 -11 -9 3 -13 10 -10 15 3
5 3 9 0 9 -3 0 -6 -1 -7 -2z"/>
<path d="M14056 9952 c-4 -7 -6 -14 -5 -15 2 -2 13 -9 24 -17 11 -8 17 -10 13
-6 -4 5 -2 16 5 25 10 14 10 14 -5 3 -14 -11 -17 -10 -20 5 -3 14 -5 15 -12 5z"/>
<path d="M25648 9809 c17 -30 108 -193 202 -364 95 -170 178 -317 186 -326 16
-18 19 -33 4 -24 -5 3 -10 0 -10 -7 0 -7 49 -194 108 -415 l107 -403 -6 -107
c-4 -60 -8 -309 -10 -555 -2 -247 -8 -448 -13 -448 -4 0 -6 -12 -3 -27 4 -22
-255 -1215 -304 -1396 -9 -35 -8 -41 26 -87 44 -60 56 -66 19 -10 -14 22 -24
45 -21 52 4 9 503 577 753 857 2 2 -17 -54 -42 -125 -25 -71 -72 -203 -104
-294 -32 -91 -71 -203 -87 -250 -17 -47 -78 -203 -137 -348 -64 -156 -104
-267 -99 -275 4 -6 6 -20 5 -29 -2 -12 3 -18 15 -18 14 0 19 -9 21 -42 1 -23
88 -778 192 -1677 105 -900 190 -1639 190 -1643 0 -30 1390 680 1390 710 0 4
-111 578 -246 1275 l-247 1269 -84 156 c-113 209 -132 244 -449 848 l-274 521
105 723 c58 398 107 725 109 727 2 2 25 -107 52 -242 27 -135 50 -242 52 -236
2 5 -15 103 -38 216 -22 114 -39 212 -38 217 2 5 338 -1167 747 -2604 409
-1437 745 -2615 747 -2617 7 -8 592 363 849 537 574 391 1394 1015 1380 1051
-3 9 -86 204 -183 434 l-177 419 -167 186 c-92 103 -318 349 -502 547 -184
198 -333 361 -331 363 1 2 510 -126 1129 -284 619 -158 1123 -290 1120 -293
-3 -3 -51 -11 -107 -18 l-102 -12 105 6 c58 3 103 3 100 0 -3 -3 -283 -112
-622 -242 -340 -131 -618 -241 -618 -245 0 -11 87 -16 723 -46 l548 -26 77 70
c42 39 121 115 175 170 l98 98 -943 657 c-519 361 -947 660 -953 665 -5 4
-584 407 -1285 896 -701 489 -1279 893 -1285 898 -18 17 20 -1 2425 -1162
1301 -628 2370 -1143 2375 -1144 6 -1 42 -19 82 -39 43 -22 74 -33 78 -27 4 6
3 9 -2 8 -4 -1 -28 9 -53 22 -188 99 -4909 2370 -4927 2370 -12 0 -25 5 -28
10 -9 15 -38 13 -29 -2 4 -7 -3 -4 -15 7 -13 11 -25 19 -27 17 -5 -3 -493 324
-509 341 -12 13 -14 14 265 -163 124 -78 228 -147 232 -154 4 -6 8 -7 8 -3 0
4 10 2 23 -4 18 -10 20 -10 11 2 -261 338 -566 729 -576 736 -7 6 -276 98
-598 203 -322 106 -591 195 -598 198 -8 3 -1 -18 16 -49z m872 -1065 c0 -3
-10 1 -22 8 -13 7 -27 11 -33 9 -5 -1 -7 1 -3 5 10 10 -69 67 -82 59 -6 -3 -7
0 -4 9 4 12 21 4 75 -35 38 -28 69 -53 69 -55z m845 -74 c-3 -4 -73 -9 -157
-9 -84 -1 -154 -4 -156 -6 -3 -2 2 -15 11 -28 15 -23 15 -24 0 -23 -13 1 -22
-25 -43 -132 -15 -73 -30 -135 -34 -139 -9 -9 -7 9 14 152 11 72 20 140 20
153 l0 22 -221 0 c-147 0 -218 3 -214 10 4 7 141 10 396 10 215 -1 387 -5 384
-10z m-760 -409 c14 -211 24 -385 22 -388 -7 -7 -362 368 -361 381 1 13 305
399 310 394 1 -2 15 -176 29 -387z m500 300 c3 -5 1 -12 -5 -16 -5 -3 -10 1
-10 9 0 18 6 21 15 7z m-128 -273 c-3 -8 -6 -5 -6 6 -1 11 2 17 5 13 3 -3 4
-12 1 -19z m-10 -230 c-3 -8 -6 -5 -6 6 -1 11 2 17 5 13 3 -3 4 -12 1 -19z
m-297 -768 c39 -605 44 -690 37 -690 -9 0 -463 543 -470 563 -5 13 49 104 196
330 173 266 202 307 204 282 2 -17 16 -235 33 -485z"/>
<path d="M14422 9782 c-1 -24 0 -25 9 -9 7 11 7 23 2 28 -5 5 -9 -3 -11 -19z"/>
<path d="M14423 9721 c0 -11 5 -17 9 -15 5 3 6 9 3 14 -3 4 1 11 7 13 8 4 7 6
-4 6 -11 1 -16 -6 -15 -18z"/>
<path d="M14429 9683 c-12 -16 -12 -17 2 -6 9 7 20 9 24 5 5 -4 5 -1 1 6 -9
16 -11 15 -27 -5z"/>
<path d="M14440 9646 c0 -2 7 -9 15 -16 13 -11 14 -10 9 4 -5 14 -24 23 -24
12z"/>
<path d="M15245 9641 c-3 -5 -2 -12 3 -15 5 -3 9 1 9 9 0 17 -3 19 -12 6z"/>
<path d="M14440 9531 c0 -10 19 -25 25 -20 1 2 -3 10 -11 17 -8 7 -14 8 -14 3z"/>
<path d="M14230 9426 c0 -2 8 -10 18 -17 15 -13 16 -12 3 4 -13 16 -21 21 -21
13z"/>
<path d="M14296 9278 c3 -5 10 -6 15 -3 13 9 11 12 -6 12 -8 0 -12 -4 -9 -9z"/>
<path d="M14513 9253 c-7 -3 -13 -9 -13 -15 0 -7 5 -6 14 1 11 9 15 9 19 -1 4
-9 6 -9 6 -1 1 15 -10 22 -26 16z"/>
<path d="M15396 9222 c-3 -5 1 -9 9 -9 8 0 12 4 9 9 -3 4 -7 8 -9 8 -2 0 -6
-4 -9 -8z"/>
<path d="M14305 9200 c3 -5 11 -10 16 -10 6 0 7 5 4 10 -3 6 -11 10 -16 10 -6
0 -7 -4 -4 -10z"/>
<path d="M14390 9126 c0 -2 8 -10 18 -17 15 -13 16 -12 3 4 -13 16 -21 21 -21
13z"/>
<path d="M14370 9116 c0 -11 30 -39 36 -34 2 3 -5 13 -16 23 -11 10 -20 15
-20 11z"/>
<path d="M14396 9027 c3 -10 9 -15 12 -12 3 3 0 11 -7 18 -10 9 -11 8 -5 -6z"/>
<path d="M14465 8821 c-3 -5 -1 -12 5 -16 5 -3 10 1 10 9 0 18 -6 21 -15 7z"/>
<path d="M14475 8720 c4 -6 11 -8 16 -5 14 9 11 15 -7 15 -8 0 -12 -5 -9 -10z"/>
<path d="M27753 8693 c59 -2 154 -2 210 0 56 1 8 3 -108 3 -115 0 -161 -2
-102 -3z"/>
<path d="M14536 8591 c-4 -7 -5 -15 -2 -18 9 -9 19 4 14 18 -4 11 -6 11 -12 0z"/>
<path d="M14565 8580 c-3 -6 1 -7 9 -4 18 7 21 14 7 14 -6 0 -13 -4 -16 -10z"/>
<path d="M14636 8392 c-3 -5 1 -9 9 -9 8 0 12 4 9 9 -3 4 -7 8 -9 8 -2 0 -6
-4 -9 -8z"/>
<path d="M14640 8358 c14 -17 12 -31 -2 -22 -7 4 -10 4 -6 -1 4 -4 3 -15 -4
-24 -7 -9 -1 -6 12 6 23 22 23 24 7 38 -9 8 -12 10 -7 3z"/>
<path d="M14680 8320 c-9 -6 -10 -10 -3 -10 6 0 15 5 18 10 8 12 4 12 -15 0z"/>
<path d="M14696 8154 c-8 -21 -8 -24 5 -24 5 0 8 4 4 9 -3 5 -1 12 4 16 5 3
14 -3 20 -12 6 -10 11 -13 11 -7 0 11 -20 34 -31 34 -4 0 -10 -7 -13 -16z"/>
<path d="M15885 7801 c-3 -5 -2 -12 3 -15 5 -3 9 1 9 9 0 17 -3 19 -12 6z"/>
<path d="M14874 7772 c4 -3 14 -7 22 -8 9 -1 13 0 10 4 -4 3 -14 7 -22 8 -9 1
-13 0 -10 -4z"/>
<path d="M27052 7560 c0 -14 2 -19 5 -12 2 6 2 18 0 25 -3 6 -5 1 -5 -13z"/>
<path d="M27061 7515 c0 -11 13 -81 28 -155 16 -74 29 -126 30 -115 0 11 -13
81 -28 155 -16 74 -29 126 -30 115z"/>
<path d="M16020 7396 c0 -2 8 -10 18 -17 15 -13 16 -12 3 4 -13 16 -21 21 -21
13z"/>
<path d="M16055 7280 c-3 -6 1 -7 9 -4 18 7 21 14 7 14 -6 0 -13 -4 -16 -10z"/>
<path d="M27122 7200 c0 -14 2 -19 5 -12 2 6 2 18 0 25 -3 6 -5 1 -5 -13z"/>
<path d="M15475 7150 c10 -11 20 -20 23 -20 3 0 -3 9 -13 20 -10 11 -20 20
-23 20 -3 0 3 -9 13 -20z"/>
<path d="M27132 7150 c0 -14 2 -19 5 -12 2 6 2 18 0 25 -3 6 -5 1 -5 -13z"/>
<path d="M27142 7100 c0 -14 2 -19 5 -12 2 6 2 18 0 25 -3 6 -5 1 -5 -13z"/>
<path d="M15555 7070 c10 -11 20 -20 23 -20 3 0 -3 9 -13 20 -10 11 -20 20
-23 20 -3 0 3 -9 13 -20z"/>
<path d="M27152 7050 c0 -14 2 -19 5 -12 2 6 2 18 0 25 -3 6 -5 1 -5 -13z"/>
<path d="M16156 7051 c-3 -5 2 -15 12 -22 15 -12 16 -12 5 2 -7 9 -10 19 -6
22 3 4 4 7 0 7 -3 0 -8 -4 -11 -9z"/>
<path d="M27162 7000 c0 -14 2 -19 5 -12 2 6 2 18 0 25 -3 6 -5 1 -5 -13z"/>
<path d="M15635 6990 c10 -11 20 -20 23 -20 3 0 -3 9 -13 20 -10 11 -20 20
-23 20 -3 0 3 -9 13 -20z"/>
<path d="M16106 6995 c-6 -17 5 -26 21 -17 8 5 7 11 -2 19 -10 10 -14 9 -19
-2z"/>
<path d="M27172 6950 c0 -14 2 -19 5 -12 2 6 2 18 0 25 -3 6 -5 1 -5 -13z"/>
<path d="M15715 6910 c10 -11 20 -20 23 -20 3 0 -3 9 -13 20 -10 11 -20 20
-23 20 -3 0 3 -9 13 -20z"/>
<path d="M27181 6894 c0 -11 3 -14 6 -6 3 7 2 16 -1 19 -3 4 -6 -2 -5 -13z"/>
<path d="M16207 6858 c7 -8 11 -17 8 -20 -3 -2 2 -5 10 -5 21 0 19 10 -7 26
-20 13 -22 12 -11 -1z"/>
<path d="M27192 6840 c0 -14 2 -19 5 -12 2 6 2 18 0 25 -3 6 -5 1 -5 -13z"/>
<path d="M27202 6790 c0 -14 2 -19 5 -12 2 6 2 18 0 25 -3 6 -5 1 -5 -13z"/>
<path d="M16263 6745 c0 -8 4 -12 9 -9 5 3 6 10 3 15 -9 13 -12 11 -12 -6z"/>
<path d="M27212 6740 c0 -14 2 -19 5 -12 2 6 2 18 0 25 -3 6 -5 1 -5 -13z"/>
<path d="M27222 6690 c0 -14 2 -19 5 -12 2 6 2 18 0 25 -3 6 -5 1 -5 -13z"/>
<path d="M16275 6660 c-3 -5 -1 -10 4 -10 6 0 11 5 11 10 0 6 -2 10 -4 10 -3
0 -8 -4 -11 -10z"/>
<path d="M27232 6640 c0 -14 2 -19 5 -12 2 6 2 18 0 25 -3 6 -5 1 -5 -13z"/>
<path d="M27242 6590 c0 -14 2 -19 5 -12 2 6 2 18 0 25 -3 6 -5 1 -5 -13z"/>
<path d="M16276 6578 c3 -5 10 -6 15 -3 13 9 11 12 -6 12 -8 0 -12 -4 -9 -9z"/>
<path d="M27251 6534 c0 -11 3 -14 6 -6 3 7 2 16 -1 19 -3 4 -6 -2 -5 -13z"/>
<path d="M27261 6484 c0 -11 3 -14 6 -6 3 7 2 16 -1 19 -3 4 -6 -2 -5 -13z"/>
<path d="M27271 6434 c0 -11 3 -14 6 -6 3 7 2 16 -1 19 -3 4 -6 -2 -5 -13z"/>
<path d="M16350 6399 c0 -5 5 -7 10 -4 6 3 10 8 10 11 0 2 -4 4 -10 4 -5 0
-10 -5 -10 -11z"/>
<path d="M27281 6384 c0 -11 3 -14 6 -6 3 7 2 16 -1 19 -3 4 -6 -2 -5 -13z"/>
<path d="M27291 6334 c0 -11 3 -14 6 -6 3 7 2 16 -1 19 -3 4 -6 -2 -5 -13z"/>
<path d="M27301 6284 c0 -11 3 -14 6 -6 3 7 2 16 -1 19 -3 4 -6 -2 -5 -13z"/>
<path d="M32485 6250 c3 -5 8 -10 11 -10 2 0 4 5 4 10 0 6 -5 10 -11 10 -5 0
-7 -4 -4 -10z"/>
<path d="M27311 6234 c0 -11 3 -14 6 -6 3 7 2 16 -1 19 -3 4 -6 -2 -5 -13z"/>
<path d="M27331 6124 c0 -11 3 -14 6 -6 3 7 2 16 -1 19 -3 4 -6 -2 -5 -13z"/>
<path d="M27341 6074 c0 -11 3 -14 6 -6 3 7 2 16 -1 19 -3 4 -6 -2 -5 -13z"/>
<path d="M27351 6024 c0 -11 3 -14 6 -6 3 7 2 16 -1 19 -3 4 -6 -2 -5 -13z"/>
<path d="M27361 5974 c0 -11 3 -14 6 -6 3 7 2 16 -1 19 -3 4 -6 -2 -5 -13z"/>
<path d="M27371 5924 c0 -11 3 -14 6 -6 3 7 2 16 -1 19 -3 4 -6 -2 -5 -13z"/>
<path d="M27381 5874 c0 -11 3 -14 6 -6 3 7 2 16 -1 19 -3 4 -6 -2 -5 -13z"/>
<path d="M31293 5733 c15 -2 39 -2 55 0 15 2 2 4 -28 4 -30 0 -43 -2 -27 -4z"/>
<path d="M31193 5723 c15 -2 37 -2 50 0 12 2 0 4 -28 4 -27 0 -38 -2 -22 -4z"/>
<path d="M31088 5713 c12 -2 30 -2 40 0 9 3 -1 5 -23 4 -22 0 -30 -2 -17 -4z"/>
<path d="M30978 5703 c12 -2 30 -2 40 0 9 3 -1 5 -23 4 -22 0 -30 -2 -17 -4z"/>
<path d="M30873 5693 c9 -2 23 -2 30 0 6 3 -1 5 -18 5 -16 0 -22 -2 -12 -5z"/>
<path d="M30763 5683 c9 -2 23 -2 30 0 6 3 -1 5 -18 5 -16 0 -22 -2 -12 -5z"/>
<path d="M30658 5673 c7 -3 16 -2 19 1 4 3 -2 6 -13 5 -11 0 -14 -3 -6 -6z"/>
<path d="M26182 5181 c-8 -4 -14 -12 -15 -17 -1 -5 -5 -8 -9 -7 -4 2 -5 -6 -3
-17 3 -14 -2 -20 -13 -20 -16 -1 -16 -1 1 -11 9 -5 17 -15 17 -21 0 -6 -7 -5
-17 3 -15 13 -15 12 -4 -9 15 -28 11 -32 50 46 30 59 28 75 -7 53z"/>
<path d="M26103 5075 c0 -8 4 -12 9 -9 5 3 6 10 3 15 -9 13 -12 11 -12 -6z"/>
<path d="M26065 5040 c3 -5 8 -10 11 -10 2 0 4 5 4 10 0 6 -5 10 -11 10 -5 0
-7 -4 -4 -10z"/>
<path d="M25906 4907 c3 -10 9 -15 12 -12 3 3 0 11 -7 18 -10 9 -11 8 -5 -6z"/>
<path d="M25426 4507 c3 -10 9 -15 12 -12 3 3 0 11 -7 18 -10 9 -11 8 -5 -6z"/>
<path d="M24413 4256 l-771 -131 454 -695 c251 -382 507 -773 569 -869 64 -97
116 -168 119 -160 2 8 7 27 10 42 4 18 11 25 19 21 9 -5 9 -4 1 5 -8 9 -7 27
3 69 8 31 25 107 37 167 41 192 140 638 191 860 8 33 24 105 35 160 12 55 27
127 35 160 8 33 23 101 34 150 10 50 31 143 45 208 31 140 31 147 9 146 -10
-1 -365 -60 -790 -133z"/>
<path d="M22316 3888 c9 -59 14 -60 14 -5 0 26 -5 47 -10 47 -6 0 -8 -16 -4
-42z"/>
<path d="M22322 3810 c0 -14 2 -19 5 -12 2 6 2 18 0 25 -3 6 -5 1 -5 -13z"/>
<path d="M22281 3764 c0 -11 3 -14 6 -6 3 7 2 16 -1 19 -3 4 -6 -2 -5 -13z"/>
<path d="M22322 3760 c0 -14 2 -19 5 -12 2 6 2 18 0 25 -3 6 -5 1 -5 -13z"/>
<path d="M22271 3714 c0 -11 3 -14 6 -6 3 7 2 16 -1 19 -3 4 -6 -2 -5 -13z"/>
<path d="M22333 3575 c0 -27 2 -38 4 -22 2 15 2 37 0 50 -2 12 -4 0 -4 -28z"/>
<path d="M22211 3404 c0 -11 3 -14 6 -6 3 7 2 16 -1 19 -3 4 -6 -2 -5 -13z"/>
<path d="M22201 3354 c0 -11 3 -14 6 -6 3 7 2 16 -1 19 -3 4 -6 -2 -5 -13z"/>
<path d="M24893 2638 c-22 -28 -24 -38 -8 -32 9 4 13 9 11 12 -3 3 -1 11 5 19
6 7 9 13 6 13 -2 0 -9 -6 -14 -12z"/>
<path d="M22705 2423 c-4 -109 -8 -298 -9 -419 -1 -122 -5 -220 -9 -217 -4 2
-8 -69 -9 -159 -1 -157 -6 -357 -14 -598 l-4 -115 48 -110 c26 -60 51 -113 57
-117 5 -4 7 -8 3 -8 -6 0 36 -107 46 -117 1 -2 23 3 47 10 24 8 47 14 52 15 4
1 24 4 45 7 77 13 75 11 47 65 -14 27 -25 56 -25 65 0 8 -4 15 -10 15 -5 0 -7
6 -4 13 3 8 -11 124 -30 258 -19 134 -40 290 -47 347 -7 56 -16 102 -20 102
-4 0 -5 8 -3 18 3 9 -16 159 -40 332 -25 173 -48 345 -52 383 -4 37 -10 67
-15 67 -5 0 -6 6 -3 14 3 7 -2 60 -11 117 -9 57 -19 131 -22 164 -3 33 -7 61
-8 63 -2 2 -6 -86 -10 -195z"/>
<path d="M23253 2555 c0 -8 4 -12 9 -9 5 3 6 10 3 15 -9 13 -12 11 -12 -6z"/>
<path d="M23265 2410 c-3 -6 1 -7 9 -4 18 7 21 14 7 14 -6 0 -13 -4 -16 -10z"/>
<path d="M23240 2379 c0 -5 5 -7 10 -4 6 3 10 8 10 11 0 2 -4 4 -10 4 -5 0
-10 -5 -10 -11z"/>
<path d="M21952 2315 c-45 -31 -82 -58 -82 -60 0 -5 145 89 165 106 22 21 -6
5 -83 -46z"/>
<path d="M23270 2356 c7 -7 13 -7 20 0 6 6 3 10 -10 10 -13 0 -16 -4 -10 -10z"/>
<path d="M21614 2258 l-19 -23 23 19 c21 18 27 26 19 26 -2 0 -12 -10 -23 -22z"/>
<path d="M23286 2253 c-6 -14 -5 -15 5 -6 7 7 10 15 7 18 -3 3 -9 -2 -12 -12z"/>
<path d="M21569 2203 c-13 -16 -12 -17 4 -4 9 7 17 15 17 17 0 8 -8 3 -21 -13z"/>
<path d="M22150 2175 c0 -8 112 -185 117 -185 3 0 -1 10 -9 23 -8 12 -34 55
-57 95 -39 65 -51 81 -51 67z"/>
<path d="M21529 2153 c-13 -16 -12 -17 4 -4 16 13 21 21 13 21 -2 0 -10 -8
-17 -17z"/>
<path d="M23321 2003 c-1 -17 16 -25 25 -12 4 7 3 9 -4 5 -5 -3 -13 0 -15 6
-4 9 -6 10 -6 1z"/>
<path d="M22280 1960 c6 -11 13 -20 16 -20 2 0 0 9 -6 20 -6 11 -13 20 -16 20
-2 0 0 -9 6 -20z"/>
<path d="M22310 1910 c6 -11 13 -20 16 -20 2 0 0 9 -6 20 -6 11 -13 20 -16 20
-2 0 0 -9 6 -20z"/>
<path d="M23347 1915 c-4 -8 -3 -16 1 -19 4 -3 9 4 9 15 2 23 -3 25 -10 4z"/>
<path d="M18770 1895 c13 -14 26 -25 28 -25 3 0 -5 11 -18 25 -13 14 -26 25
-28 25 -3 0 5 -11 18 -25z"/>
<path d="M23358 1843 c6 -2 9 -10 6 -15 -4 -7 -2 -8 5 -4 13 9 5 26 -12 25 -9
0 -8 -2 1 -6z"/>
<path d="M18820 1836 c0 -2 8 -10 18 -17 15 -13 16 -12 3 4 -13 16 -21 21 -21
13z"/>
<path d="M19303 1743 c9 -2 23 -2 30 0 6 3 -1 5 -18 5 -16 0 -22 -2 -12 -5z"/>
<path d="M19138 1733 c7 -3 16 -2 19 1 4 3 -2 6 -13 5 -11 0 -14 -3 -6 -6z"/>
<path d="M23420 1535 c0 -5 5 -17 10 -25 5 -8 10 -10 10 -5 0 6 -5 17 -10 25
-5 8 -10 11 -10 5z"/>
<path d="M23498 1333 c7 -3 16 -2 19 1 4 3 -2 6 -13 5 -11 0 -14 -3 -6 -6z"/>
<path d="M23494 1209 c3 -17 33 -20 33 -3 0 10 -4 11 -13 3 -8 -7 -14 -6 -17
1 -3 6 -5 6 -3 -1z"/>
<path d="M23520 1151 c0 -6 4 -13 10 -16 6 -3 7 1 4 9 -7 18 -14 21 -14 7z"/>
<path d="M24025 879 c-3 -4 2 -6 10 -5 21 3 28 13 10 13 -9 0 -18 -4 -20 -8z"/>
<path d="M23914 864 c-18 -14 -18 -15 4 -4 12 6 22 13 22 15 0 8 -5 6 -26 -11z"/>
<path d="M23580 786 c0 -2 7 -7 16 -10 8 -3 12 -2 9 4 -6 10 -25 14 -25 6z"/>
<path d="M19223 153 c9 -2 25 -2 35 0 9 3 1 5 -18 5 -19 0 -27 -2 -17 -5z"/>
</g>
</svg>
